<?xml version="1.0" encoding="utf-8"?>
<!-- Generator: Adobe Illustrator 27.3.1, SVG Export Plug-In . SVG Version: 6.00 Build 0)  -->
<svg version="1.1" xmlns="http://www.w3.org/2000/svg" xmlns:xlink="http://www.w3.org/1999/xlink" x="0px" y="0px"
	 viewBox="0 0 1920 1080" style="enable-background:new 0 0 1920 1080;" xml:space="preserve">
<style type="text/css">
	.st0{display:none;}
	.st1{fill:none;stroke:#000000;stroke-miterlimit:10;}
</style>
<g id="Layer_1" class="st0">
</g>
<g id="Layer_2">
	<g>
		<g>
			<path class="st1" d="M15.82,13.45c136.31,0.01,272.73,1.49,409.03-0.19c143.6-1.77,287-12.35,430.63-12.63
				c111.93-0.21,223.85-0.02,335.78-0.01c94.19,0.01,187.25,7.91,281.25,11.57c148.6,5.79,298.13,1.25,446.83,1.25
				c-0.21,355.39-0.21,710.78,0,1066.17c-151.47,0.02-302.93,0-454.4,0c-483.04,0-966.08,0.08-1449.11,0
				C15.9,724.23,15.89,368.84,15.82,13.45z"/>
			<path class="st1" d="M15.82,1058.73c484.09,3.13,968.32-1.04,1452.43-1.01c150.35,0.01,300.72,1.85,451.07,1.01"/>
			<path class="st1" d="M15.82,1037.82c125.15,0.98,250.29-4.1,375.45-4.32c129.11-0.23,258.18,4.39,387.3,4.33
				c231.81-0.12,463.61-3.75,695.46-3.69c148.43,0.04,296.87,4.69,445.28,3.68"/>
			<path class="st1" d="M15.82,1016.92c123.98,0.67,247.67-9.09,371.69-8.66c130.41,0.45,260.64,8.74,391.06,8.67
				c104.73-0.06,209.23-6.81,313.94-7.82c129.7-1.25,259.47,0.12,389.18,0.19c145.94,0.08,291.74,8.31,437.63,7.62"/>
			<path class="st1" d="M15.82,996.01c122.61,0.06,244.46-15.24,367.15-13.89c131.97,1.45,263.58,13.97,395.59,13.89
				c100.53-0.05,200.53-10.49,300.98-12.47c136.92-2.69,274.11-0.07,411.06,0.05c143.13,0.12,285.72,12.48,428.73,12.42"/>
			<path class="st1" d="M15.82,975.1c121.16-0.7,240.92-21.96,362.21-19.58c133.66,2.62,266.76,19.67,400.51,19.58
				c96.02-0.07,191.04-14.48,286.9-17.51c144.66-4.58,290-0.3,434.72-0.14c69.01,0.08,137.71-0.04,206.56,5.18
				c70.89,5.37,141.44,12.11,212.61,12.47"/>
			<path class="st1" d="M15.81,954.19c119.73-1.47,237.29-28.7,357.25-25.31c135.35,3.82,269.97,25.45,405.46,25.31
				c91.56-0.1,181.46-18.52,272.73-22.59c152.32-6.8,306.07-0.54,458.53-0.33c68.95,0.1,137.42-0.13,206.09,6.85
				c67.87,6.9,135.14,15.33,203.48,16.08"/>
			<path class="st1" d="M15.81,933.28c118.46-2.09,233.81-34.9,352.62-30.65c136.93,4.89,272.95,30.86,410.07,30.64
				c87.53-0.14,172.44-22.36,259.5-27.34c69.12-3.95,138.93-1.18,208.13-1.04c90.9,0.18,181.79,0.41,272.69,0.56
				c68.89,0.11,137.12-0.44,205.57,8.38c65.07,8.38,129.16,18.4,194.95,19.45"/>
			<path class="st1" d="M15.81,912.38c117.48-2.43,230.75-40.02,348.69-35.18c138.28,5.68,275.45,35.45,413.99,35.17
				c84.25-0.17,164.67-25.73,248.25-31.37c70.82-4.78,142.67-1.36,213.6-1.21c95.46,0.21,190.92,0.47,286.38,0.64
				c68.76,0.12,136.81-0.94,204.93,9.63c62.72,9.73,123.96,21.12,187.68,22.31"/>
			<path class="st1" d="M15.81,891.47c116.89-2.34,228.38-43.53,345.85-38.46c139.33,6.01,277.21,38.75,416.84,38.45
				c82.03-0.18,158.85-28.34,240.02-34.32c71.96-5.3,145.21-1.41,217.31-1.24c99.02,0.23,198.03,0.51,297.05,0.7
				c68.5,0.13,136.42-1.58,204.11,10.45c61.04,10.84,120.01,23.29,182.35,24.42"/>
			<path class="st1" d="M15.82,870.57c116.75-1.69,227.03-44.89,344.45-40.07c139.95,5.74,278,40.34,418.27,40.07
				c81.11-0.16,155.74-29.93,235.84-35.82c72.38-5.32,146.14-1.28,218.65-1.11c101.22,0.24,202.44,0.55,303.65,0.74
				c68.08,0.13,135.9-2.25,203.06,10.69c60.26,11.61,117.79,24.7,179.6,25.5"/>
			<path class="st1" d="M15.8,849.67c117.32-1.68,228.41-44.62,346.38-40.04c140.08,5.44,278.08,41.01,418.48,40.5
				c80.93-0.3,155.34-29.8,235.26-35.65c72.37-5.29,146.1-1.35,218.61-1.1c99.42,0.34,198.84,0.8,298.26,1.03
				c68.57,0.15,136.44-1.6,204.19,10.54c61.03,10.93,120.02,23.55,182.37,24.73"/>
			<path class="st1" d="M15.8,828.76c119.55-1.78,233.58-44.14,353.71-39.45c140.26,5.48,278.29,42.19,418.89,41.58
				c80.52-0.35,154.76-29.14,234.31-34.88c71.04-5.13,143.36-1.32,214.53-0.92c95.03,0.53,190.05,1.28,285.08,1.63
				c69.26,0.26,137.56-0.54,206.22,9.73c63.7,9.53,126.21,20.87,190.83,22.3"/>
			<path class="st1" d="M15.8,807.85c123.16-1.78,241.57-43.51,365.23-38.46c140.52,5.73,278.64,43.74,419.52,43.22
				c79.92-0.3,153.88-28.2,232.87-33.74c68.55-4.8,138.26-1.15,206.91-0.52c89.01,0.81,178.01,1.9,267.02,2.46
				c69.91,0.44,139.01,0.36,208.55,8.36c67.83,7.8,135.06,17.33,203.45,18.68"/>
			<path class="st1" d="M15.81,786.95c127.73-1.69,251.52-42.79,379.66-37.21c140.84,6.13,279.06,45.55,420.3,45.25
				c79.21-0.17,152.78-27.08,231.11-32.33c65.25-4.37,131.51-0.89,196.84,0.02c81.85,1.13,163.7,2.63,245.56,3.45
				c70.57,0.7,140.7,0.93,211.1,6.58c72.98,5.86,145.7,13.23,218.97,14.23"/>
			<path class="st1" d="M15.81,766.04c132.85-1.54,262.56-42.04,395.73-35.8c141.19,6.61,279.54,47.51,421.16,47.51
				c78.42,0,151.56-25.84,229.16-30.77c61.5-3.9,123.84-0.59,185.39,0.64c74.07,1.48,148.12,3.43,222.2,4.52
				c150.03,2.22,299.91,13.03,449.89,13.89"/>
			<path class="st1" d="M15.82,745.14c138.11-1.37,273.83-41.31,412.18-34.36c141.55,7.11,280.02,49.49,422.04,49.82
				c77.62,0.18,150.31-24.58,227.17-29.17c123.29-7.36,248.66,4.36,372.02,6.9c156.54,3.23,313.54,7.15,470.1,6.82"/>
			<path class="st1" d="M15.83,724.24c143.09-1.23,284.46-40.64,427.72-33c141.89,7.57,280.47,51.4,422.87,52
				c76.86,0.32,149.13-23.38,225.28-27.66c112.27-6.31,225.99,5.49,338.25,8.54c162.84,4.42,326.47,1.52,489.36,0.12"/>
			<path class="st1" d="M15.84,703.33c147.37-1.14,293.61-40.06,441.1-31.84c142.2,7.92,280.85,53.11,423.59,53.89
				c76.2,0.42,148.1-22.31,223.63-26.34c102.72-5.48,206.22,6.47,308.84,9.96c168.43,5.73,337.82-3.55,506.3-5.66"/>
			<path class="st1" d="M15.83,682.43c150.55-1.15,300.42-39.57,451.04-31c142.44,8.1,281.13,54.52,424.14,55.32
				c75.68,0.43,147.33-21.47,222.38-25.34c95.49-4.92,191.03,7.22,286.34,11.02c172.85,6.89,346.68-7.79,519.57-9.99"/>
			<path class="st1" d="M15.82,661.52c152.2-1.33,304.02-39.19,456.27-30.61c142.59,8.04,281.27,55.5,424.45,56.12
				c75.36,0.32,146.9-20.94,221.66-24.77c91.41-4.68,182.16,7.66,273.3,11.59c175.72,7.58,352.07-10.95,527.81-12.33"/>
			<path class="st1" d="M15.83,640.61c80.26-1.37,160.1-10.2,239.92-18.01c71.3-6.98,144.22-16.07,215.94-11.48
				c141.6,9.07,280.26,53.21,422.44,54.37c76.55,0.62,150.12-20.23,226.16-24.29c91.54-4.89,181.07,8.96,272.18,13.11
				c175.58,8.01,351.26-14.27,526.84-13.71"/>
			<path class="st1" d="M15.84,619.7c78.7-1.75,157.08-8.98,235.48-15.56c70.53-5.92,142.57-14.3,213.37-9.7
				c138.13,8.97,274.8,44.43,413.38,46.02c82.47,0.95,163.32-18.48,245.44-22.61c95.04-4.78,185.62,13.35,279.85,19.25
				c171.96,10.77,343.99-18.82,515.95-17.4"/>
			<path class="st1" d="M15.84,598.79c144.88-3,291.49-26.3,436.31-18.65c132.94,7.02,265.46,30.96,398.65,32.39
				c92.42,0.99,184.16-16.04,276.37-19.92c50.39-2.12,100.12-0.86,150.04,6.68c47.95,7.25,95.32,18.03,143.68,22.44
				c166.07,15.14,332.34-24.05,498.41-22.94"/>
			<path class="st1" d="M15.83,577.89c139.73-1.98,280.11-14.59,419.82-10.33c126.58,3.86,253.24,14.14,379.88,14.98
				c105.35,0.7,210.4-13.18,315.63-16.51c53.26-1.68,104.89,0.58,157.3,10.75c51.65,10.02,102.45,24.35,154.74,30.9
				c158.86,19.9,317.36-29.84,476.11-29.78"/>
			<path class="st1" d="M15.82,556.99c133.65-0.58,267.31-1.09,400.96-0.99c119.58,0.08,239.1-4.65,358.68-4.7
				c120.05-0.05,239.88-10.12,359.88-12.66c56.74-1.2,110.66,2.49,166.05,15.51c55.73,13.1,110.33,31.19,166.98,40.26
				c151.59,24.29,299.85-36.01,450.96-37.42"/>
			<path class="st1" d="M15.81,536.09c126.97,0.88,254.36,12.94,381.3,8.69c112.58-3.77,223.93-24.07,336.68-25.13
				c135.31-1.27,270.5-7.04,405.79-8.66c60.46-0.73,116.77,4.53,175.29,20.5c59.93,16.36,118.49,38.09,179.6,49.92
				c145.5,28.17,280.69-42.34,424.86-45.32"/>
			<path class="st1" d="M15.8,515.19c120.28,2.11,242.24,26.24,362.44,18.03c106.22-7.25,208.65-43.38,315.48-44.81
				c149.98-2.01,300.05-4.11,450.04-4.81c64.08-0.3,122.52,6.57,184.03,25.26c64.01,19.45,126.4,44.77,191.84,59.29
				c66.8,14.82,130.11,9.51,195.6-8.62c68.02-18.83,132.76-42.09,204.12-44.34"/>
			<path class="st1" d="M15.8,494.29c59.65,1.5,118.45,8.78,177.56,16.36c55.2,7.07,112.74,15.44,168.39,10
				c101.23-9.9,194.2-60.31,296.71-62.22c162.95-3.03,326.32-1.51,489.3-1.4c67.16,0.04,127.25,8.28,191.29,29.33
				c67.69,22.25,133.54,50.8,202.9,67.75c65.67,16.04,126.68,12.65,190.29-9.56c62.55-21.83,119.72-47.59,187.13-50.25"/>
			<path class="st1" d="M15.8,473.38c57.62,1.56,113.61,10.6,170.27,20.37c53.06,9.15,109.25,18.82,163.13,12.59
				c98.11-11.35,181.81-73.85,281.98-75.86c173.2-3.48,347,0.61,520.23,1.29c69.32,0.27,130.31,9.4,196.07,32.23
				c70.72,24.55,139.4,55.82,212,74.71c64.35,16.74,124.71,15.54,186.17-10.42c58.37-24.65,108.68-52.22,173.71-54.92"/>
			<path class="st1" d="M15.81,452.47c109.17,2.27,216.97,49.79,326.39,37.19c97.12-11.19,173.02-82.62,272.92-84.2
				c179.69-2.85,359.8,2.1,539.51,2.97c30.33,0.15,60.71-0.98,90.75,3.8c36.48,5.8,71.95,17.26,106.63,29.71
				c72.83,26.14,143.45,59.46,218.35,79.57c62.86,16.88,124.4,17.5,183.7-11.18c55.96-27.07,100.85-55.59,165.29-57.85"/>
			<path class="st1" d="M15.81,431.56c109.34,1.91,215.76,49.59,325.48,37.96c49.07-5.2,91.42-27.08,134.86-48.73
				c43.68-21.77,87.51-36.66,136.79-37.12c181.17-1.7,362.54,2.1,543.71,3.03c29.88,0.15,59.96-1.09,89.58,3.47
				c36.59,5.64,72.13,17.3,106.82,29.95c73.16,26.67,143.98,60.88,219.34,81.21c62.2,16.78,125.1,17.55,183.58-11.65
				c22.25-11.11,42.93-25.11,65.37-35.88c31.24-15,63.46-21.09,97.99-22.23"/>
			<path class="st1" d="M15.81,410.66c109.18,2.65,218.07,46.72,327.44,35.01c98.74-10.57,176.18-83.54,277.66-84.36
				c180.25-1.46,360.7-0.11,540.96,0.68c30.01,0.13,60.29-1,90.03,3.59c36.13,5.58,71.18,17.18,105.35,29.91
				c71.41,26.61,140.34,60.96,214.06,81.07c62.25,16.99,124.79,16.65,183.85-10.81c22.4-10.41,43.44-23.51,66-33.6
				c31.48-14.08,63.83-20.05,98.19-21.5"/>
			<path class="st1" d="M15.81,389.76c110.05,2.63,221.7,40.9,331.76,29.57c101.46-10.44,184.57-80.87,288.42-81.71
				c178.67-1.43,357.44-3.38,536.13-3.42c29.88-0.01,60.07-1.16,89.68,3.47c35.23,5.5,69.32,17.04,102.49,29.84
				c68.76,26.53,134.88,60.97,206.07,80.87c61.68,17.24,123.96,15.83,183.35-8.75c56.2-23.26,103.16-47.26,165.63-49.87"/>
			<path class="st1" d="M15.81,368.85c111.79,2.06,226.16,32.95,337.82,22.32c105.39-10.04,195.25-77.25,302.65-78.2
				c176.62-1.56,353.17-7.43,529.79-8.82c29.56-0.23,59.44-1.51,88.73,3.17c34,5.42,66.8,16.89,98.62,29.74
				c65.45,26.44,128.06,60.94,196.1,80.62c60.67,17.55,122.84,15.13,182.29-5.81c56.76-20,106.09-40.9,167.53-43.01"/>
			<path class="st1" d="M15.81,347.94c114.1,1.11,231.1,23.73,344.97,13.92c110.15-9.49,207.28-73,319.06-74.15
				c174.25-1.79,348.27-11.98,522.49-15.02c29.12-0.51,58.55-1.98,87.41,2.75c32.57,5.34,63.87,16.72,94.12,29.62
				c61.73,26.33,120.38,60.88,184.9,80.33c59.4,17.91,121.63,14.58,180.87-2.32c57.35-16.36,109.16-33.77,169.71-35.14"/>
			<path class="st1" d="M15.82,327.03c116.76-0.02,236.07,13.82,352.56,5.05c115.36-8.69,219.73-67.98,336.39-69.88
				c171.76-2.8,343.11-16.73,514.81-21.56c63.55-1.79,116.9,5.33,175.28,31.8c57.84,26.22,112.32,60.81,173.17,80.03
				c117.88,37.23,233.1-24.36,351.3-25.44"/>
			<path class="st1" d="M15.82,306.12c119.4-1.12,240.83,4.3,359.98-3.63c120.5-8.02,231.8-63.59,353.34-65.7
				c169.34-2.95,338.08-21.42,507.28-27.96c61.8-2.39,112.97,4.19,169.21,31.24c54.1,26.01,104.35,60.75,161.67,79.74
				c56.72,18.8,119.51,13.96,177.79,5.03c58.48-8.96,114.73-18.93,174.25-18.72"/>
			<path class="st1" d="M15.82,285.21c121.79-1.97,244.99-4.18,366.56-11.44c125.18-7.47,242.61-59.61,368.63-61.93
				c167.17-3.08,333.53-25.74,500.48-33.74c60.16-2.89,109.72,3.03,163.91,30.77c50.59,25.9,96.98,60.79,151.1,79.47
				c55.68,19.22,118.76,13.79,176.55,8.24c58.98-5.66,116.86-12.13,176.28-11.37"/>
			<path class="st1" d="M15.82,264.31c63.66-1.19,127.08-5.48,190.58-9.84c60.36-4.14,120.76-4.52,181.1-7.87
				c128.96-7.16,251.31-56.43,380.98-58.89c165.43-3.13,329.83-29.41,494.96-38.44c58.86-3.22,107.48,2.06,159.96,30.48
				c47.67,25.82,90.73,60.8,142.2,79.25c54.93,19.69,118.38,13.52,175.79,10.7c59.4-2.92,118.41-6.37,177.93-5.4"/>
			<path class="st1" d="M15.82,243.4c64.4-0.99,128.36-6.61,192.47-12.28c60.79-5.37,121.38-6.16,182.23-9.5
				c131.42-7.21,257.06-54.41,389.11-56.87c164.33-3.06,327.3-32.14,491.27-41.58c58.06-3.34,106.61,1.4,157.95,30.44
				c45.55,25.76,86.09,60.86,135.71,79.08c54.66,20.07,118.38,12.98,175.72,12.09c59.7-0.92,119.33-2.09,179.04-1.39"/>
			<path class="st1" d="M15.82,222.51c64.68-0.5,128.79-6.77,193.11-13.02c60.76-5.91,121.23-6.41,182.05-9.98
				c132.12-7.77,259.1-53.57,391.81-56.14c163.89-3.17,326.1-33.28,489.63-42.53c57.98-3.28,107.27,1.33,158.38,30.69
				c44.59,25.61,83.94,60.59,132.69,78.6c54.97,20.31,118.56,12.38,176.24,12.38c59.87,0,119.73,0,179.6,0"/>
			<path class="st1" d="M15.81,201.6c64.89-0.7,129.31-6.61,193.89-12.5c60.83-5.55,121.51-6.08,182.37-9.82
				c132.43-8.13,260.42-51.66,393.41-54.4c161.67-3.32,321.86-31.6,483.19-40.75c57.95-3.29,107.37,1.72,158.92,29.98
				c44.52,24.41,84.3,57.54,132.55,74.87c55.62,19.97,118.68,12.63,176.86,12.63c60.78,0,121.56,0,182.35,0"/>
			<path class="st1" d="M15.81,180.69c65.37-0.73,130.37-6.1,195.49-11.44c61.17-5.01,122.28-5.49,183.46-9.09
				c133.28-7.84,262.84-47.98,396.6-50.84c157.37-3.36,313.43-28.82,470.51-37.25c57.21-3.07,106.87,1.74,158.58,27.86
				c44.43,22.44,84.7,52.96,132.32,68.83c56.68,18.88,119.96,11.93,178.89,11.93c62.56,0,125.12,0,187.68,0"/>
			<path class="st1" d="M15.81,159.79c66.05-0.63,131.84-5.33,197.7-9.97c61.72-4.34,123.41-4.7,185.13-7.93
				c134.53-7.05,266.06-43.43,400.98-45.92c151.5-2.8,301.92-25.23,453.19-32.46c56-2.68,105.96,1.49,157.59,24.69
				c44.3,19.9,85.12,47.2,132.03,61.08c58.08,17.17,122.05,10.52,181.96,10.52c64.98,0,129.96,0,194.95,0"/>
			<path class="st1" d="M15.81,138.88c66.88-0.44,133.57-4.38,200.32-8.23c62.4-3.6,124.79-3.78,187.18-6.5
				c136.07-5.93,269.78-37.9,406.13-40.11c144.62-2.35,288.36-21.07,432.82-26.83c54.56-2.18,104.81,1.06,156.17,20.82
				c44.14,16.98,85.53,40.64,131.7,52.2c59.74,14.96,124.61,8.65,185.72,8.65c67.83,0,135.65,0,203.48,0"/>
			<path class="st1" d="M15.82,117.98c130.67-0.41,261.93-6.89,392.53-11.29c137.73-4.64,273.72-32.58,411.66-33.88
				c137.24-1.3,273.86-16.63,411-20.8c53.13-1.62,103.55,0.52,154.55,16.63c43.98,13.89,85.91,33.64,131.34,42.79
				c61.57,12.4,127.31,6.55,189.81,6.55c70.87,0,141.74,0,212.61,0"/>
			<path class="st1" d="M15.82,97.08C148.21,97.11,281,92.39,413.35,89.2c139.41-3.36,277.6-27.32,417.15-27.69
				c129.93-0.35,259.45-12.17,389.31-14.8c51.89-1.05,102.33-0.04,152.95,12.47c43.81,10.82,86.22,26.6,130.99,33.43
				c63.41,9.67,129.9,4.48,193.87,4.48c73.9,0,147.8,0,221.69,0"/>
			<path class="st1" d="M15.82,76.17c133.95,0.39,268.15-2.63,402.08-4.78c140.97-2.26,281.14-22.41,422.2-22
				c123.2,0.36,246.19-7.99,369.36-9.29c50.97-0.54,101.28-0.49,151.59,8.7c43.65,7.97,86.44,19.94,130.66,24.7
				c65.08,7,132.16,2.67,197.54,2.67c76.69,0,153.37,0,230.06,0"/>
			<path class="st1" d="M15.82,55.27c135.21,0.57,270.59-0.84,405.79-2.27c142.28-1.5,284.06-18.11,426.4-17.29
				c117.61,0.68,235.13-4.36,352.72-4.69c50.43-0.14,100.58-0.7,150.7,5.68c43.52,5.53,86.57,14.09,130.38,17.2
				c66.41,4.72,133.91,1.36,200.46,1.36c79.01,0,158.03,0,237.04,0"/>
			<path class="st1" d="M15.82,34.36c136.04,0.47,272.2,0.57,408.24-0.65c143.21-1.28,286.1-14.67,429.35-14.01
				c113.67,0.53,227.33-1.6,341-1.45c50.25,0.07,100.38-0.5,150.49,3.77c43.42,3.7,86.61,9.48,130.17,11.52
				c147.47,6.89,296.61,0.81,444.25,0.81"/>
			<path class="st1" d="M1882,13.45c-3.99,177.76,13.28,356.88,0.45,534.43c-5.91,81.72-2.52,162.64,1.66,244.33
				c4.9,95.76-4.28,191.63-2.11,287.41"/>
			<path class="st1" d="M1844.67,13.45c-1.29,52.6,5.57,104.53,8.54,156.94c2.48,43.67,0.52,87.61,1.27,131.34
				c1.44,83.58,7.88,167.31-8.21,249.72c-7.76,39.71-10.26,77.12-10.67,117.46c-0.43,41.19,8.87,81.02,14.7,121.56
				c13.84,96.26-8.01,192.73-5.63,289.15"/>
			<path class="st1" d="M1807.35,13.45c-0.62,53.09,10.93,104.43,16.7,156.94c4.87,44.31,2.43,89.35,3.76,133.87
				c1.44,48.14,3.11,96.23,3.68,144.39c0.46,39.07-7.36,71.56-20.85,108.05c-14.12,38.19-22.14,72.67-21.05,113.62
				c1.1,41.11,17.26,78.63,27.99,117.75c26.45,96.46-11.37,194.25-10.23,291.55"/>
			<path class="st1" d="M1770.03,13.45c0.61,53.86,17.33,104.33,26.45,156.94c7.8,45.04,5.03,91.52,7,137.08
				c2.2,50.63,5.65,101.29,5.78,151.98c0.1,40.21-13.6,69.68-33.87,103.67c-20.75,34.79-36.91,67.22-33.48,108.89
				c3.41,41.47,27.42,76.11,43.7,113.24c41.75,95.24-14.47,196.57-15.57,294.38"/>
			<path class="st1" d="M1732.71,13.45c2.17,54.86,24.28,104.25,37.01,156.94c11.06,45.76,8.01,93.87,10.64,140.63
				c3,53.3,7.94,106.76,8.05,160.18c0.08,41.64-21.75,68.83-48.09,98.9c-26.13,29.82-53.31,61.21-46.98,103.7
				c6.27,42.07,38.66,73.89,60.67,108.38c58.51,91.7-17.5,200.06-21.29,297.45"/>
			<path class="st1" d="M1695.4,13.45c3.82,56.03,31.27,104.22,47.65,156.94c14.4,46.38,11.04,96.18,14.3,144.2
				c3.79,55.94,10.45,112.32,10.33,168.44c-0.09,43.29-31.29,68.58-62.41,94.1c-29.54,24.23-70.05,55.05-60.56,98.47
				c9.38,42.95,50.65,71.77,77.74,103.48c14.64,17.14,28.63,37.34,30.59,60.5c2,23.53-5.6,49.07-12.04,71.29
				c-16.27,56.1-41.68,109.78-45.59,168.74"/>
			<path class="st1" d="M1658.08,13.45c5.29,57.27,37.83,104.25,57.58,156.94c17.55,46.82,13.81,98.28,17.63,147.49
				c4.54,58.38,12.82,117.55,12.47,176.17c-0.28,45.25-41.4,68.12-75.72,89.62c-31.01,19.43-85.82,48.9-73.25,93.64
				c12.34,43.9,62.39,69.86,93.75,98.89c16.63,15.4,34.69,34.93,37.38,58.56c2.68,23.58-7.32,50.65-14.74,72.37
				c-19.52,57.17-49.68,111.48-55.11,172.5"/>
			<path class="st1" d="M1620.76,13.45c6.27,58.47,43.45,104.33,66.07,156.94c20.21,47,15.99,100.02,20.28,150.16
				c5.17,60.46,14.81,122.03,14.3,182.8c-0.4,47.23-50.46,67.5-86.92,85.81c-31.49,15.81-99.17,43.33-84.05,89.61
				c14.67,44.87,72.88,68.22,107.54,94.94c18.15,13.99,39.72,32.72,42.94,56.96c3.15,23.71-8.74,51.9-16.93,73.25
				c-22.27,58-56.77,112.87-63.23,175.7"/>
			<path class="st1" d="M1583.43,13.45c6.44,59.55,47.62,104.46,72.34,156.94c22.08,46.87,17.26,101.28,21.88,151.89
				c5.66,62.06,16.15,125.35,15.68,187.76c-0.37,49.15-56.83,66.89-94.89,83.02c-32.02,13.57-108.62,38.64-91.98,86.83
				c15.84,45.86,81.09,67.07,117.94,91.96c19.29,13.03,43.24,30.95,46.64,55.9c3.27,24.01-9.53,52.52-18.37,73.81
				c-24.28,58.52-62.57,113.81-69.23,178.07"/>
			<path class="st1" d="M1546.1,13.45c5.43,60.41,49.83,104.59,75.64,156.94c22.86,46.37,17.29,101.94,22.06,152.36
				c5.96,63.02,16.57,127.07,16.43,190.48c-0.11,50.98-58.9,66.55-98.55,81.59c-33.6,12.75-112.65,35.02-96.05,85.7
				c15.33,46.84,86.02,66.67,123.79,90.28c20.18,12.61,44.76,29.81,47.83,55.56c2.92,24.56-9.4,52.24-18.77,73.95
				c-25.32,58.6-66.71,114.2-72.37,179.31"/>
			<path class="st1" d="M1510.15,13.23c5.01,60.44,49.71,102.73,75.78,154.66c23.07,45.94,18.04,102.44,21.84,152.56
				c4.79,63.23,13.11,127.19,13.82,190.63c0.55,49.71-58.89,66.95-97.05,82.53c-32.4,13.22-111.78,37.59-94.17,86.69
				c16.43,45.8,81.4,65.9,118.64,90.39c19.39,12.75,43.81,30.67,47.24,55.61c3.27,23.78-10.12,52.81-18.7,73.9
				c-24,59.01-60.91,115.15-68.76,179.41"/>
			<path class="st1" d="M1477.85,12.4c4.9,59.31,49.28,98.09,75.54,148.33c23.65,45.24,17.98,102,19.66,151.61
				c2.14,63.39,6.2,127.04,6.88,190.45c0.52,48.24-55.27,68.49-92.11,86.22c-31.83,15.31-105.87,42.94-89.13,90.37
				c15.41,43.66,70.27,65.06,104.58,91.04c17.81,13.49,39.4,32.2,42.73,55.82c3.28,23.22-9.23,52.72-16.45,73.91
				c-20.25,59.43-49.66,116.69-58.07,179.48"/>
			<path class="st1" d="M1448.41,11.09c4.77,57.41,48.73,91.44,75.19,138.97c24.63,44.24,16.85,100.82,15.68,149.53
				c-1.53,63.45-3.06,126.74-3.19,190.2c-0.1,47.33-48.78,70.74-84.64,92.01c-32.01,18.99-96,49.44-82.03,96.18
				c12.24,40.95,55.24,64.21,84.41,91.97c15.52,14.76,32.15,34,34.87,56.18c2.85,23.3-6.83,51.8-12.29,73.94
				c-14.72,59.7-35.33,118.22-42.26,179.57"/>
			<path class="st1" d="M1420.97,9.44c4.65,55.09,48.07,83.37,74.76,127.51c25.99,42.98,14.86,99.3,10.45,146.66
				c-5.89,63.28-13.92,126.3-15.45,189.88c-1.13,46.96-40.89,73.26-75.4,99.25c-32.12,24.19-83.33,56.54-73.5,103.47
				c7.93,37.86,38.16,63.18,60,93.09c30.39,41.61,24.32,81.96,17.86,130.63c-7.94,59.86-18.71,119.39-22.88,179.69"/>
			<path class="st1" d="M1394.64,7.6c4.54,52.84,47.45,74.3,74.29,114.86c27.55,41.64,12.21,97.7,4.52,143.35
				c-10.6,62.86-25.65,125.71-28.93,189.54c-2.42,47.05-32.9,75.86-65.16,107.32c-31.44,30.65-68.94,63.73-64.16,111.6
				c3.43,34.4,20.55,62.92,33.19,94.32c17.04,42.32,12.93,86.5,12.58,131.21c-0.47,59.94-0.75,119.88-1.47,179.81"/>
			<path class="st1" d="M1368.57,5.72c4.38,50.41,45.59,64.8,73.02,100.93c31.14,41.01,9.2,100.48-1.88,145.22
				c-14.69,59.37-35.48,119.33-41.23,180.49c-2.17,23.13-3.95,42.84-15.37,63.74c-11.02,20.17-25.65,38.19-39.72,56.27
				c-28.96,37.2-53.83,70.17-54.64,118.76c-0.56,33.18,3.57,65.79,6,98.79c3.06,41.53,1.49,82.62,6.33,124.16
				c7.2,61.83,18.11,123.29,21.06,185.55"/>
			<path class="st1" d="M1341.88,3.94c4.32,48.82,44.62,56.41,72.56,88.79c33.37,38.67,5.51,100.25-7.91,141.92
				c-18.96,58.89-45.48,118.48-53.82,180.17c-3.13,23.14-3.31,44.24-12.45,66.32c-8.9,21.5-21.12,41.48-32.91,61.48
				c-12.77,21.68-26.13,43.39-35.03,67.03c-7.5,19.93-8.05,38.71-10.36,59.58c-3.78,34-13.46,66.74-20.85,100.02
				c-3.82,17.21-7.76,35.06-8.91,52.68c-1.57,24.11,4.6,48.64,10.08,72.01c14.5,61.81,36.16,122.22,42.51,185.67"/>
			<path class="st1" d="M1313.71,2.41c4.3,47.92,43.64,49.13,72.17,78.21c35.56,36.24,2,100.67-12.97,139.22
				c-22.66,58.35-54.57,117.62-64.87,179.89c-3.83,23.16-2.87,45.55-10.04,68.4c-7.13,22.72-17.15,44.42-26.85,66.12
				c-10.51,23.54-21.47,47.13-28.54,72c-5.84,20.55-4.93,40.67-8.69,61.37c-6.74,37.07-28.54,67.76-44.42,101.11
				c-7.86,16.52-15.46,34.75-17.48,53.07c-2.66,24.14,6.6,49.43,14.24,72.05c20.84,61.67,52.39,120.69,61.21,185.79"/>
			<path class="st1" d="M1283.2,1.28c4.31,47.87,42.67,43.53,71.86,70.08c37.5,34.12-0.65,101.57-16.51,137.47
				c-25.49,57.71-62.3,116.86-73.48,179.67c-4.13,23.18-2.73,46.45-8.42,69.68c-5.81,23.72-14.03,46.78-21.99,69.84
				c-8.63,25.02-17.61,50.07-23.37,75.95c-4.61,20.75-3.01,41.93-7.46,62.42c-8.77,40.34-40.62,68.96-62.82,101.95
				c-10.7,15.91-21.01,34.03-23.54,53.35c-3.2,24.38,7.87,49.96,17.11,72.07c25.65,61.36,65.95,119.01,75.57,185.87"/>
			<path class="st1" d="M1249.46,0.69c4.35,48.79,41.72,40.07,71.68,65.32c38.94,32.82-1.57,102.72-17.94,137.02
				c-27.18,56.95-68.23,116.33-78.75,179.53c-3.86,23.17-3.05,46.61-7.91,69.86c-5.1,24.38-12.04,48.34-18.77,72.3
				c-7.31,25.99-14.89,52-19.99,78.54c-3.97,20.65-2.58,42.08-6.82,62.44c-8.96,42.98-48.22,69.98-74.12,102.47
				c-33.09,41.53-29.81,78.68-7.97,125.53c28.37,60.86,76.1,117.56,83.97,185.92"/>
			<path class="st1" d="M1212.49,0.64c5.79,47.97,39.98,39.6,69.6,65.14c39.19,33.79-0.15,102.26-17.36,137.18
				c-27.7,56.18-71.19,115.72-80.42,178.9c-7.02,48.05-13.91,95.05-24.32,142.67c-5.76,26.38-11.65,52.76-16.39,79.35
				c-3.65,20.44-3.9,41.75-7.91,61.98c-8.7,43.78-49.46,70.42-76.4,102.73c-33.83,40.55-29.29,79.51-7.73,125.6
				c28.4,60.71,76.56,117.07,83.97,185.45"/>
			<path class="st1" d="M1175.18,0.63c2.8,19.89,8.34,34.27,25.27,45.44c11.81,7.79,26.16,11.63,36.33,21.91
				c36.55,36.92-0.46,100.6-19.15,136.8c-28.47,55.15-73.87,114.01-82.89,176.81c-6.82,47.5-10.37,95.78-14.82,143.56
				c-4.34,46.65-5.42,96.17-14.87,142.13c-9.05,43.97-49.77,70.83-77.08,103.27c-34.01,40.4-29.07,79.18-8.55,125.49
				c26.78,60.46,70.81,116.48,78.78,183.59"/>
			<path class="st1" d="M1137.85,0.63c2.33,18.52,6.33,34.05,20.41,46.78c9.31,8.42,20.87,13.84,28.59,24.05
				c31.15,41.19-2.78,98.7-23.43,136.22c-29.6,53.76-77.23,111.42-86.65,173.61c-7.25,47.85-2.46,96.99,1.15,144.91
				c3.49,46.3,10.61,97.43,1.13,143.53c-9.1,44.27-50.55,71.5-78.1,104.09c-33.83,40.02-29.48,78.54-10.68,125.14
				c24.12,59.78,63.33,115.38,70.59,180.65"/>
			<path class="st1" d="M1100.52,0.63c1.53,17.51,3.89,33.85,13.85,48.6c6.2,9.18,14.35,16.54,19.25,26.63
				c22.59,46.5-5.9,95.78-29.5,135.5c-30.96,52.11-81.07,108.2-91.33,169.62c-8.16,48.86,9.15,100.04,21.75,146.59
				c12.17,44.94,31.29,98.07,21.84,145.37c-8.9,44.58-51.63,72.46-79.38,105.11c-33.49,39.41-30.22,77.78-13.73,124.62
				c20.7,58.78,54.54,113.89,60.27,176.95"/>
			<path class="st1" d="M1063.19,0.64c1.03,29.35,9.34,52.29,15.23,80.17c10.89,51.48-9.08,91.95-36.65,134.69
				c-32.45,50.3-85.21,104.57-96.56,165.17c-9.39,50.11,24.49,105.28,45.13,148.47c20.2,42.27,54.77,98.19,45.37,147.46
				c-8.57,44.87-52.91,73.6-80.8,106.25c-33.07,38.71-31.05,77.01-17.33,123.99c16.81,57.58,44.89,112.13,48.67,172.8"/>
			<path class="st1" d="M1025.85,0.64c-0.58,28.48-2.13,56.84-3.29,85.29c-0.76,18.55,1.06,38.62-2.97,56.74
				c-6.26,28.19-24.9,53.87-41.18,77.1c-19.45,27.76-40.74,54.19-60.27,81.89c-16.31,23.13-36.2,50.21-41.71,78.67
				c-10.07,52.02,42.51,111.01,69.43,150.41c26.57,38.89,79.19,98.02,69.83,149.64c-8.19,45.15-54.25,74.8-82.28,107.43
				c-32.66,38.02-31.77,76.31-21.13,123.33c12.74,56.26,34.86,110.23,36.64,168.48"/>
			<path class="st1" d="M988.51,0.64c-2.29,32.99-13.36,58.98-21.16,90.23c-4.75,19.03-3.24,38.97-7.86,57.85
				c-6.81,27.84-26.46,52.79-43.43,75.19c-20.44,26.96-42.7,52.48-63.22,79.38c-16.87,22.12-38.23,48.71-44,76.72
				c-5.47,26.56,11.82,51.35,26.52,72.11c20.03,28.3,43.48,54.13,66.29,80.18c24.53,28.03,50.15,55.86,70.85,86.94
				c12.7,19.06,26.64,40.89,22.5,64.79c-7.86,45.42-55.53,75.95-83.7,108.57c-32.35,37.46-32.24,75.73-24.73,122.7
				c8.78,54.91,25,108.31,25.03,164.32"/>
			<path class="st1" d="M951.18,0.65c-4.02,38.57-22.88,60.66-37.05,94.62c-8.03,19.24-6.77,39.06-11.96,58.8
				c-7.24,27.56-27.81,51.87-45.4,73.51c-21.33,26.24-44.49,50.93-65.9,77.1c-17.37,21.24-39.99,47.34-46,75.02
				c-6.02,27.73,16.09,52.76,32.94,72.56c24.72,29.06,52.95,55.07,80.47,81.42c29.55,28.29,60.38,56.26,86.03,88.26
				c14.81,18.48,32.25,40.17,28.03,65.3c-7.68,45.68-56.64,76.92-84.98,109.59c-32.2,37.11-32.35,75.26-27.78,122.17
				c5.22,53.66,15.87,106.5,14.71,160.62"/>
			<path class="st1" d="M913.86,0.65c-2.56,21.85-8.12,40.08-20.63,58.13c-9.4,13.56-21.18,25.34-29.03,39.98
				c-10.4,19.38-9.13,38.94-14.74,59.5c-7.46,27.39-28.83,51.21-46.91,72.23c-22.06,25.65-45.98,49.63-68.13,75.2
				c-17.82,20.57-41.34,46.22-47.53,73.72c-6.47,28.76,18.89,53.77,37.25,72.9c28.51,29.71,60.69,55.93,92.13,82.43
				c33.7,28.41,68.85,56.54,98.47,89.34c16.31,18.07,35.99,39.47,31.6,65.62c-7.71,45.95-57.45,77.61-86,110.41
				c-32.27,37.06-32.02,74.9-29.9,121.83c2.37,52.62,8.09,104.94,6.53,157.69"/>
			<path class="st1" d="M876.55,0.64c-4.62,46.39-35.42,63.7-57.66,100.32c-11.87,19.55-9.93,38.67-15.66,59.86
				c-7.4,27.37-29.35,50.92-47.77,71.5c-22.58,25.24-47.07,48.69-69.74,73.84c-18.22,20.21-42.12,45.47-48.39,72.99
				c-6.75,29.64,19.17,54.13,38.6,73.08c31.05,30.28,66.11,56.53,100.27,83.14c36.55,28.47,74.89,56.56,107.06,90.09
				c17.27,18,37.12,38.77,32.44,65.68c-8.04,46.25-57.83,77.89-86.68,110.95c-32.61,37.36-31.19,74.58-30.72,121.72
				c0.52,51.95,2.29,103.87,1.33,155.83"/>
			<path class="st1" d="M838.89,0.69c-3.6,47.32-36.6,64.35-59.44,101.18c-12.14,19.58-9.59,38.47-15.41,59.7
				c-7.49,27.35-29.35,50.84-47.79,71.42c-22.52,25.13-46.95,48.48-69.56,73.53c-18.31,20.28-41.94,45.36-48.42,72.91
				c-7.07,30.04,17.93,54.28,37.84,73.43c31.55,30.36,67.43,56.32,102.3,82.68c37.26,28.16,76.55,55.94,109.15,89.62
				c17.6,18.19,36.61,38.71,31.72,65.92c-8.34,46.38-57.83,77.96-86.83,111.23c-14.29,16.39-26.64,34.42-29.71,56.38
				c-2.96,21.18-0.85,43.97-0.81,65.31c0.1,51.88,0.47,103.75,0.24,155.63"/>
			<path class="st1" d="M797.98,1.29c-3.88,46.64-35.8,65.89-57.74,103.09c-11.56,19.6-9.55,38.78-15.53,59.8
				c-7.72,27.15-28.39,50.74-46.26,71.8c-21.5,25.33-44.8,49.06-66.39,74.31c-17.72,20.73-40.29,45.96-46.89,73.29
				c-7.19,29.76,17.56,54.09,37.35,73.14c30.44,29.3,65.16,54.24,98.9,79.53c36.09,27.05,74.13,53.76,105.58,86.31
				c17.43,18.05,36.4,38.86,31.64,65.83c-8.2,46.38-57.75,78.48-86.58,111.89c-14.22,16.49-26.53,34.56-29.65,56.53
				c-3.02,21.22-0.95,44.07-0.69,65.44c0.64,52.47,2.28,104.9,1.76,157.38"/>
			<path class="st1" d="M753.85,2.42c-3.75,46.23-34.22,68.29-54.84,106.34c-10.79,19.91-9.16,39.38-14.86,60.48
				c-7.29,26.99-26.36,50.89-43.23,72.54c-19.98,25.65-41.7,49.87-61.76,75.45c-16.76,21.38-37.6,46.86-43.82,74.05
				c-6.68,29.19,16.08,52.66,35.64,71.52c28.74,27.72,61.74,51.08,93.77,74.78c34.27,25.35,70.46,50.4,100.12,81.25
				c17.09,17.78,34.83,38.14,30.21,64.51c-8.16,46.54-57.46,79.17-86.16,112.97c-14.14,16.64-26.41,34.86-29.52,56.89
				c-3.02,21.42-0.78,44.51-0.16,66.06c1.55,53.47,4.8,106.86,4.36,160.37"/>
			<path class="st1" d="M707.37,3.95c-3.34,46.07-32.06,71.37-51.06,110.57c-9.89,20.39-8.52,40.19-13.64,61.59
				c-6.42,26.87-23.58,51.22-39.1,73.56c-31.7,45.65-84.29,95.64-95.7,151.94c-5.74,28.32,13.85,50.37,33.04,68.93
				c26.63,25.76,57.52,47.06,87.37,68.85c31.94,23.32,65.84,46.16,93.27,74.91c16.58,17.38,32.25,36.82,27.79,62.29
				c-8.2,46.82-57.01,79.99-85.64,114.35c-14.03,16.84-26.28,35.27-29.33,57.39c-3,21.74-0.41,45.21,0.68,67.03
				c2.71,54.78,7.83,109.39,7.74,164.27"/>
			<path class="st1" d="M659.41,5.72c-2.77,46.14-29.51,74.88-46.73,115.43c-8.91,20.98-7.75,41.13-12.05,62.96
				c-5.28,26.8-20.35,51.67-34.27,74.76c-28.58,47.4-75.02,98.57-84.44,154.72c-9.64,57.41,71.59,100.49,110.05,127.9
				c37.28,26.57,120.25,70.72,110.3,127.28c-8.3,47.19-56.48,80.88-85.04,115.92c-13.91,17.06-26.14,35.75-29.1,57.98
				c-2.95,22.15,0.1,46.06,1.7,68.22c4.04,56.27,11.16,112.27,11.62,168.75"/>
			<path class="st1" d="M610.84,7.6c-2.14,46.4-26.78,78.59-42.16,120.54c-7.92,21.6-6.94,42.14-10.31,64.45
				c-4.05,26.78-16.97,52.17-29.16,76.02c-25.14,49.2-65.31,101.54-72.61,157.64c-7.23,55.54,60.67,90.88,99.12,117.45
				c36.33,25.11,108.53,62.74,98.92,116.78c-8.46,47.6-55.89,81.8-84.4,117.57c-13.78,17.29-26,36.26-28.86,58.62
				c-2.89,22.59,0.68,46.99,2.79,69.51c5.43,57.84,14.6,115.28,15.7,173.46"/>
			<path class="st1" d="M562.52,9.43c-1.6,47.15-24.57,83.07-38.1,126.82c-6.31,20.42-6.24,39.87-8.05,60.81
				c-2.33,26.9-12.34,52.62-22.72,77.32c-22.31,53.11-59.66,109.66-63.02,168.54c-2.86,50.21,52.74,79.06,88.8,102.94
				c36.19,23.97,97.59,55.7,87.36,107.78c-9.13,46.53-53.2,80.05-81.34,115.38c-15.08,18.93-29.41,40.53-31.19,65.38
				c-1.71,23.74,2.29,49.03,5.06,72.5c6.8,57.56,17.36,114.66,19.05,172.72"/>
			<path class="st1" d="M515.32,11.08c-1.16,47.64-22.03,86.42-34,131.41c-5.55,20.84-5.56,40.72-6.79,61.97
				c-1.56,26.94-9.7,53.01-18.42,78.39c-18.87,54.89-49.97,112.21-52.06,171.24c-1.7,47.73,43.42,71.22,79,93.72
				c35.42,22.4,87.02,49.04,77.38,98.57c-9.12,46.83-52.79,80.92-80.79,116.81c-14.95,19.16-29.26,41.03-30.96,65.98
				c-1.65,24.14,2.86,49.92,6.1,73.7c8.02,58.89,20.37,117.22,22.56,176.76"/>
			<path class="st1" d="M470.11,12.39c-0.95,48.07-19.94,89.16-30.66,135.15c-4.92,21.11-5.06,41.36-5.96,62.79
				c-1.12,26.98-7.77,53.32-15.06,79.22c-15.84,56.27-41.69,114.28-43.06,173.47c-1.05,45.41,36.12,65.33,71.09,86.34
				c34.71,20.86,78.51,43.99,69.39,91.2c-9.08,47.05-52.47,81.67-80.34,117.99c-14.84,19.34-29.11,41.41-30.79,66.44
				c-1.64,24.45,3.25,50.57,6.86,74.58c9.03,59.97,22.97,119.29,25.42,180.06"/>
			<path class="st1" d="M427.76,13.23c-1.08,48.31-18.54,91.07-28.4,137.68c-4.48,21.17-4.82,41.68-5.72,63.13
				c-1.13,26.97-6.84,53.51-13.06,79.71c-13.57,57.15-35.5,115.75-36.86,175c-1,43.63,31.62,61.99,65.89,81.6
				c34.09,19.51,72.98,41.06,64.3,86.47c-9.02,47.16-52.29,82.22-80.03,118.81c-14.77,19.48-28.97,41.63-30.69,66.7
				c-1.68,24.62,3.37,50.88,7.24,75.01c9.72,60.68,24.99,120.66,27.35,182.29"/>
			<path class="st1" d="M389.05,13.45c-1.61,48.22-18.02,91.88-27.51,138.65c-9.57,47.18-8.63,95.33-18.9,142.77
				c-12.43,57.42-32.3,116.34-34.35,175.43c-1.48,42.74,30.86,61.3,64.13,80.31c33.22,18.99,71.36,40.71,62.71,85.15
				c-9.15,47.03-52.06,82.45-79.58,119.17c-14.64,19.53-28.84,41.73-30.75,66.72c-1.87,24.6,3.25,50.89,7.19,74.98
				c9.96,60.89,25.89,121.08,27.96,182.99"/>
			<path class="st1" d="M351.73,13.45c-1.94,48.17-17.27,92.53-26.31,139.45c-9.08,47.14-8.75,95.11-18.61,142.43
				c-11.82,56.79-30.75,115.09-32.78,173.4c-1.44,41.35,30.28,61.66,61.68,81.74c31.3,20.01,68.83,43.61,60.06,86.43
				c-9.49,46.36-49.46,82.23-75.82,119.48c-13.93,19.68-27.81,42.18-29.98,66.79c-2.15,24.4,3.22,50.96,6.98,74.87
				c9.5,60.46,24.3,120.24,26.75,181.59"/>
			<path class="st1" d="M314.4,13.45c-1.93,48.32-15.75,93.65-24.03,140.96c-8.2,46.91-8.07,94.4-17.2,141.41
				c-10.81,55.71-28.02,112.7-29.91,169.69c-1.32,40,27.25,62.41,56.47,84.62c29.32,22.29,62.92,47.93,54.88,89.3
				c-8.86,45.58-44.85,82.11-69.13,120.03c-12.86,20.08-25.51,42.74-27.6,66.98c-2.09,24.21,2.95,50.45,6.42,74.25
				c8.68,59.6,22.04,118.58,24.43,178.92"/>
			<path class="st1" d="M277.08,13.45c-1.67,48.66-13.75,95.11-20.94,143.01c-6.99,46.51-6.82,93.34-14.96,139.88
				c-9.49,54.27-24.42,109.45-26.07,164.74c-1.15,38.8,22.81,63.46,49.2,88.58c26.77,25.49,54.6,53.17,47.83,93.35
				c-7.54,44.73-38.8,82.08-60.27,120.77c-26.09,47.03-25.22,88.31-18.44,140.52c7.58,58.41,19.27,116.3,21.29,175.3"/>
			<path class="st1" d="M239.76,13.45c-1.24,49.16-11.38,96.78-17.33,145.42c-5.62,45.98-5.23,92.06-12.18,138.02
				c-7.95,52.57-20.27,105.65-21.6,158.97c-0.94,37.87,17.86,64.84,40.58,93.26c23.33,29.18,44.76,58.82,39.55,98.19
				c-5.81,43.89-31.89,82.15-49.98,121.62c-21.43,46.78-20.64,89.31-15.08,139.62c6.3,57.02,16.15,113.61,17.62,171.06"/>
			<path class="st1" d="M202.44,13.45c-0.72,49.76-8.84,98.55-13.46,147.99c-4.24,45.35-3.52,90.68-9.14,135.99
				c-6.29,50.71-15.87,101.61-16.82,152.81c-0.7,37.33,13.03,66.65,31.31,98.28c18.97,32.82,34.24,64.41,30.67,103.4
				c-3.95,43.13-24.64,82.32-39,122.53c-34.63,96.97,0.75,205.18,2.25,305.16"/>
			<path class="st1" d="M165.12,13.45c-0.21,50.43-6.31,100.3-9.62,150.55c-2.94,44.7-1.9,89.32-6.12,133.99
				c-4.61,48.81-11.49,97.59-12.08,146.68c-0.45,37.19,8.66,68.95,22.11,103.27c14.06,35.88,23.85,69.59,21.85,108.58
				c-2.18,42.51-17.55,82.6-28.09,123.44c-25.11,97.23,1.53,200.87,1.96,299.67"/>
			<path class="st1" d="M127.79,13.46c0.22,51.08-3.98,101.9-6.07,152.9c-1.81,44.08-0.57,88.1-3.41,132.17
				c-5.45,84.52-14.16,165.74,5.98,248.87c9.21,38.03,14.39,74.09,13.74,113.32c-0.7,42.11-11.07,82.95-17.99,124.28
				c-16.24,96.98,2.07,197,1.63,294.64"/>
			<path class="st1" d="M90.47,13.46c0.84,94.84-0.95,190.8-4.41,285.59c-3.03,83.01-7.85,165.27,2.71,247.91
				c10.46,81.86,4.92,160.38-2.49,242.19c-8.73,96.4,2.15,193.89,1.22,290.49"/>
			<path class="st1" d="M53.15,13.46c1.44,177.5-8.84,355.87-0.47,533.2c3.87,81.88,1.67,163.45-1.04,245.33
				c-3.17,95.8,1.54,191.81,0.7,287.65"/>
		</g>
	</g>
</g>
</svg>
