<svg width="284" height="284" viewBox="0 0 284 284" fill="none" xmlns="http://www.w3.org/2000/svg">
<path d="M188.684 29.0475C188.684 29.0475 144.84 7.61685 101.717 28.2921C58.5949 48.9673 36.6985 97.6108 17.9204 136.422C-0.857696 175.234 9.75823 218.243 42.6 241.19C75.4417 264.137 97.8493 238.742 143.977 242.86C190.104 246.978 202.481 255.31 240.826 232.8C279.172 210.291 286.266 147.186 256.225 96.293C226.183 45.4002 188.684 29.0475 188.684 29.0475Z" fill="#795993"/>
<path d="M119.979 24.9919V107.857" stroke="black" stroke-width="3" stroke-miterlimit="10"/>
<path d="M102.905 56.0104H137.053V90.7265H172.121" stroke="black" stroke-width="3" stroke-miterlimit="10"/>
<path d="M188.729 34.2504V74.0615H172.121V144.891H268.096" stroke="black" stroke-width="3" stroke-miterlimit="10"/>
<path d="M172.121 109.243H257.02" stroke="black" stroke-width="3" stroke-miterlimit="10"/>
<path d="M191.035 91.6525H250.102" stroke="black" stroke-width="3" stroke-miterlimit="10"/>
<path d="M207.189 91.6524V74.5272H225.184V65.7289" stroke="black" stroke-width="3" stroke-miterlimit="10"/>
<path d="M188.729 55.5447H206.264" stroke="black" stroke-width="3" stroke-miterlimit="10"/>
<path d="M155.047 56.0104H172.121V26.8436" stroke="black" stroke-width="3" stroke-miterlimit="10"/>
<path d="M154.587 26.3778V74.9872" stroke="black" stroke-width="3" stroke-miterlimit="10"/>
<path d="M138.433 39.3453H155.047" stroke="black" stroke-width="3" stroke-miterlimit="10"/>
<path d="M85.3704 44.9004V109.243" stroke="black" stroke-width="3" stroke-miterlimit="10"/>
<path d="M34.1538 113.413V126.374H49.3819V109.243H102.444V127.76H137.053V110.169H155.507V145.351H85.3704" stroke="black" stroke-width="3" stroke-miterlimit="10"/>
<path d="M85.3704 127.76V162.016H34.1538" stroke="black" stroke-width="3" stroke-miterlimit="10"/>
<path d="M50.3022 162.482V230.994H85.3706" stroke="black" stroke-width="3" stroke-miterlimit="10"/>
<path d="M49.842 196.738H32.3079" stroke="black" stroke-width="3" stroke-miterlimit="10"/>
<path d="M13.8479 179.607H32.768" stroke="black" stroke-width="3" stroke-miterlimit="10"/>
<path d="M20.3118 143.965H67.8363V127.3" stroke="black" stroke-width="3" stroke-miterlimit="10"/>
<path d="M68.2964 213.403V179.147H137.973V162.482H207.189V179.147H224.258V126.834H243.178" stroke="black" stroke-width="3" stroke-miterlimit="10"/>
<path d="M190.115 127.3H208.57V109.243" stroke="black" stroke-width="3" stroke-miterlimit="10"/>
<path d="M260.252 205.996V162.016H242.258V197.664H138.433V215.255H119.979V241.178" stroke="black" stroke-width="3" stroke-miterlimit="10"/>
<path d="M119.519 231.92H101.984" stroke="black" stroke-width="3" stroke-miterlimit="10"/>
<path d="M119.979 197.664H85.3704V246.733" stroke="black" stroke-width="3" stroke-miterlimit="10"/>
<path d="M102.905 198.124V215.715" stroke="black" stroke-width="3" stroke-miterlimit="10"/>
<path d="M103.365 179.607V162.942" stroke="black" stroke-width="3" stroke-miterlimit="10"/>
<path d="M119.979 145.351V162.942" stroke="black" stroke-width="3" stroke-miterlimit="10"/>
<path d="M137.513 242.104V232.38H154.587" stroke="black" stroke-width="3" stroke-miterlimit="10"/>
<path d="M155.507 243.03V215.255" stroke="black" stroke-width="3" stroke-miterlimit="10"/>
<path d="M172.581 197.664V232.38H207.649V244.882" stroke="black" stroke-width="3" stroke-miterlimit="10"/>
<path d="M190.575 214.789H255.174" stroke="black" stroke-width="3" stroke-miterlimit="10"/>
<path d="M225.184 215.255V232.846" stroke="black" stroke-width="3" stroke-miterlimit="10"/>
<path d="M189.655 198.124V179.607" stroke="black" stroke-width="3" stroke-miterlimit="10"/>
<path d="M172.581 162.482V179.607" stroke="black" stroke-width="3" stroke-miterlimit="10"/>
<path d="M155.047 197.198V180.073" stroke="black" stroke-width="3" stroke-miterlimit="10"/>
<path d="M119.979 91.6525H102.905" stroke="black" stroke-width="3" stroke-miterlimit="10"/>
<path d="M101.985 74.0615H86.2964" stroke="black" stroke-width="3" stroke-miterlimit="10"/>
<path d="M45.2241 91.6525H67.8362V62.4913" stroke="black" stroke-width="3" stroke-miterlimit="10"/>
<path d="M31.842 213.403V227.751" stroke="black" stroke-width="3" stroke-miterlimit="10"/>
<path d="M135.371 267.772C170.559 267.772 199.084 264.482 199.084 260.422C199.084 256.363 170.559 253.072 135.371 253.072C100.184 253.072 71.6589 256.363 71.6589 260.422C71.6589 264.482 100.184 267.772 135.371 267.772Z" fill="#263238" stroke="#263238" stroke-miterlimit="10"/>
<path d="M138.677 259.281H142L148.816 211.256H176.728L179.062 259.451H181.811L184.083 159.483C184.083 159.031 183.904 158.598 183.584 158.278C183.265 157.959 182.831 157.779 182.379 157.779L141.165 158.154L121.779 211.387L143.653 211.256L138.677 259.281Z" fill="#263238" stroke="#263238" stroke-miterlimit="10"/>
<path d="M179.471 160.892H141.364L143.852 205.008H177.915L179.471 160.892Z" fill="#8C8C8C" stroke="#263238" stroke-miterlimit="10"/>
<path d="M85.3592 162.391L84.7117 115.77H145.488L149.986 193.904H88.5741L85.3592 162.391Z" fill="#CCCCCC" stroke="#263238" stroke-miterlimit="10"/>
<path d="M84.7117 115.77C84.7117 115.77 89.534 118.042 91.4652 136.666C93.3964 155.291 94.0382 182.97 94.0382 182.97L85.0979 173.882L84.7117 115.77Z" fill="#263238" stroke="#263238" stroke-miterlimit="10"/>
<path d="M173.819 191.973H117.474C116.429 191.973 115.582 192.819 115.582 193.864V207.121C115.582 208.166 116.429 209.013 117.474 209.013H173.819C174.864 209.013 175.711 208.166 175.711 207.121V193.864C175.711 192.819 174.864 191.973 173.819 191.973Z" fill="#B8B8B8" stroke="#263238" stroke-miterlimit="10"/>
<path d="M159.881 191.973H115.582V209.013H159.881V191.973Z" fill="#263238" stroke="#263238" stroke-miterlimit="10"/>
<path d="M133.616 106.784C133.616 106.784 126.567 109.272 123.523 111.623C120.478 113.975 119.377 121.717 121.313 128.908C123.25 136.099 122.143 138.45 120.484 143.562C118.826 148.674 104.995 158.495 101.541 166.793C98.0879 175.092 100.297 183.941 105.551 189.331C110.805 194.722 123.523 195.142 127.397 195.142C131.27 195.142 135.417 194.864 135.417 194.864C135.417 194.864 147.583 194.296 156.847 191.819C166.112 189.343 172.337 181.175 169.985 175.506C167.634 169.838 159.892 168.452 156.575 167.208C153.258 165.964 149.242 163.198 147.998 162.232C146.754 161.267 145.374 160.017 145.374 160.017C145.374 160.017 147.725 156.564 149.918 155.592C152.11 154.621 158.353 156.728 162.777 146.606C163.344 144.49 163.536 142.291 163.345 140.109C162.931 137.064 163.345 134.855 163.487 129.737C163.629 124.619 168.031 120.609 167.355 114.526C166.68 108.443 155.74 102.359 145.925 104.154C136.11 105.949 133.616 106.784 133.616 106.784Z" fill="#9D86DD" stroke="#263238" stroke-miterlimit="10"/>
<path d="M112.265 166.129C112.265 166.129 124.574 160.04 139.183 167.475" stroke="#263238" stroke-miterlimit="10"/>
<path d="M114.355 162.925C118.845 161.88 123.542 162.171 127.868 163.76" stroke="#263238" stroke-miterlimit="10"/>
<path d="M143.767 107.869C143.437 113.242 142.381 131.963 143.329 136.4C144.465 141.591 153.712 143.448 157.796 140.478C161.88 137.507 163.317 124.176 164.101 116.003C164.379 113.06 163.016 109.834 161.051 106.915C156.476 104.282 151.136 103.303 145.925 104.143L145.028 104.313C144.318 105.534 143.858 106.426 143.858 106.426C143.858 106.426 143.818 106.949 143.767 107.869Z" fill="white" stroke="#263238" stroke-miterlimit="10"/>
<path d="M141.472 109.323L139.2 105.449C134.906 106.347 133.633 106.767 133.633 106.767C133.633 106.767 126.585 109.255 123.54 111.606C120.496 113.958 119.394 121.7 121.331 128.891C122.279 132.406 122.467 134.769 122.279 136.843C126.391 138.938 133.071 141.483 135.559 137.496C139.251 131.577 141.472 109.323 141.472 109.323Z" fill="white" stroke="#263238" stroke-miterlimit="10"/>
<path d="M126.153 110.084C126.153 110.084 118.962 112.021 117.582 121.7C116.202 131.378 126.431 147.14 128.942 152.122C131.452 157.103 138.484 168.594 141.801 169.821C145.118 171.048 148.578 164.839 148.578 158.205C148.578 151.571 139.864 138.706 137.513 133.315C135.161 127.925 133.503 119.627 133.503 119.627" fill="white"/>
<path d="M126.153 110.084C126.153 110.084 118.962 112.021 117.582 121.7C116.202 131.378 126.431 147.14 128.942 152.122C131.452 157.103 138.484 168.594 141.801 169.821C145.118 171.048 148.578 164.839 148.578 158.205C148.578 151.571 139.864 138.706 137.513 133.315C135.161 127.925 133.503 119.627 133.503 119.627" stroke="#263238" stroke-miterlimit="10"/>
<path d="M177.591 121.552C177.591 121.552 176.205 136.888 174.961 145.885C173.717 154.882 171.644 163.311 168.463 166.072C165.282 168.832 157.955 166.486 157.404 160.545C156.853 154.604 160.176 148.248 161.829 142.301C163.482 136.354 165.697 125.573 165.839 122.807C165.981 120.041 175.79 116.44 177.591 121.552Z" fill="white" stroke="#263238" stroke-miterlimit="10"/>
<path d="M137.78 84.9274C137.78 84.9274 137.78 86.6314 132.327 90.2211C126.874 93.8109 120.802 98.7866 120.802 104.552C120.802 110.317 123.449 111.873 127.346 112.186C129.75 112.332 132.128 111.613 134.048 110.158C134.048 110.158 132.804 113.271 137.161 117.167C141.517 121.064 145.113 120.751 146.976 119.973C148.839 119.195 164.584 125.732 170.65 125.085C176.716 124.437 180.618 123.381 180.147 116.679C180.147 116.679 185.759 119.166 189.962 114.185C194.165 109.204 191.365 103.751 187.315 99.417C183.265 95.0832 181.396 83.513 177.971 77.2991C174.546 71.0852 162.829 64.61 151.463 68.9666C140.097 73.3231 139.961 82.2805 137.78 84.9274Z" fill="#263238" stroke="#263238" stroke-miterlimit="10"/>
<path d="M167.367 84.1265C167.367 84.1265 173.967 94.5436 181.959 96.9803" stroke="#8F8F8F" stroke-miterlimit="10"/>
<path d="M182.515 104.637C187.366 108.045 190.541 110.391 188.195 112.952" stroke="#8F8F8F" stroke-miterlimit="10"/>
<path d="M164.294 84.7399C166.441 88.9374 169.974 94.6799 174.666 98.7127C176.182 100.019 177.716 101.189 179.21 102.268" stroke="#8F8F8F" stroke-miterlimit="10"/>
<path d="M161.812 79.2644C161.812 79.2644 162.096 80.0369 162.658 81.3035" stroke="#8F8F8F" stroke-miterlimit="10"/>
<path d="M146.169 96.4862C145.036 96.7674 143.877 96.933 142.71 96.9804" stroke="#8F8F8F" stroke-miterlimit="10"/>
<path d="M158.341 72.6643C158.341 72.6643 156.893 87.0574 154.172 91.4083C152.91 93.2981 151.095 94.7522 148.975 95.5717" stroke="#8F8F8F" stroke-miterlimit="10"/>
<path d="M127.283 107.795C128.246 108.013 129.248 107.995 130.203 107.744" stroke="#8F8F8F" stroke-miterlimit="10"/>
<path d="M153.956 79.7643C153.122 83.2688 151.542 87.4891 148.612 89.6816C143.057 93.8507 131.248 92.4648 126.732 98.0198C123.603 101.871 123.421 104.461 124.46 106.029" stroke="#8F8F8F" stroke-miterlimit="10"/>
<path d="M154.865 74.0559C154.865 74.0559 154.797 75.1919 154.524 76.8959" stroke="#8F8F8F" stroke-miterlimit="10"/>
<path d="M177.642 109.891C178.756 111.119 179.421 112.689 179.528 114.344" stroke="#8F8F8F" stroke-miterlimit="10"/>
<path d="M159.381 87.6027C159.381 87.6027 161.085 96.5771 164.936 100.797C167.395 103.501 172.541 105.444 176.018 108.318" stroke="#8F8F8F" stroke-miterlimit="10"/>
<path d="M155.848 94.7367C155.848 94.7367 155.536 99.2807 153.354 100.189C151.173 101.098 147.902 99.8771 147.902 99.8771C147.902 99.8771 154.604 98.1674 155.848 94.7367Z" fill="white" stroke="#263238" stroke-miterlimit="10"/>
<path d="M157.717 93.9586C157.986 95.1896 157.876 96.4732 157.403 97.6409C156.93 98.8086 156.114 99.806 155.064 100.502C154.005 101.259 152.75 101.691 151.45 101.746C150.15 101.802 148.862 101.478 147.742 100.814C147.742 100.814 146.499 104.864 144.937 111.095C143.375 117.326 147.43 122.773 149.481 125.733C151.531 128.692 155.246 129.777 156.802 128.999C158.358 128.22 160.068 126.511 164.584 122.932C169.099 119.354 171.593 112.651 171.752 112.186C171.911 111.72 158.029 102.524 157.717 93.9586Z" fill="white" stroke="#263238" stroke-miterlimit="10"/>
<path d="M163.158 113.333C163.158 113.333 162.022 122.421 160.403 124.829C159.71 125.869 157.183 124.261 157.183 124.261" stroke="#263238" stroke-miterlimit="10"/>
<path d="M156.848 174.717C156.848 174.717 155.28 181.891 153.19 184.14C151.1 186.389 147.413 182.328 147.413 182.328C147.413 182.328 141.733 193.069 142.71 193.716C143.687 194.364 153.178 194.898 159.125 192.012C165.072 189.127 164.459 177.188 162.851 175.097C161.244 173.007 159.103 172.945 156.848 174.717Z" fill="#8F8F8F" stroke="#263238" stroke-miterlimit="10"/>
<path d="M139.2 171.309C139.2 171.309 132.764 174.603 130.112 188.729C127.459 202.856 126.033 232.056 125.403 236.924C124.772 241.792 123.699 254.191 123.699 256.236C123.699 258.281 124.801 258.593 126.999 259.218C129.197 259.843 132.492 260.161 136.888 261.263C141.284 262.365 149.128 261.263 151.798 260.32C154.468 259.377 151.645 255.452 147.72 253.101C143.795 250.749 138.728 248.216 136.377 245.376C134.025 242.536 134.673 237.685 134.803 235.646C134.934 233.607 145.482 200.504 147.68 194.54C149.878 188.576 153.485 181.351 151.917 175.546C150.35 169.741 142.812 168.639 139.2 171.309Z" fill="white" stroke="#263238" stroke-miterlimit="10"/>
<path d="M147.68 253.095C143.755 250.738 138.728 248.227 136.377 245.399C135.07 243.837 134.673 241.65 134.622 239.656C129.078 240.906 126.499 238.674 125.38 236.987C124.75 241.894 123.676 254.197 123.676 256.231C123.676 258.264 124.778 258.588 126.976 259.213C129.175 259.837 132.469 260.155 136.865 261.257C141.262 262.359 149.106 261.257 151.775 260.314C154.445 259.372 151.605 255.447 147.68 253.095Z" fill="white" stroke="#263238" stroke-miterlimit="10"/>
<path d="M126.96 259.212C127.181 259.281 127.425 259.337 127.67 259.394C127.684 256.733 126.828 254.14 125.233 252.01C124.882 251.542 124.476 251.119 124.023 250.749C123.807 253.379 123.659 255.503 123.659 256.248C123.659 258.275 124.761 258.588 126.96 259.212Z" fill="#ADADAD" stroke="#263238" stroke-miterlimit="10"/>
<path d="M142 261.712C145.845 261.649 149.952 260.945 151.764 260.314C153.576 259.684 152.832 257.599 150.889 255.606C149.64 256.083 148.049 256.742 145.959 257.645C143.204 258.877 142.29 260.564 142 261.712Z" fill="#ADADAD" stroke="#263238" stroke-miterlimit="10"/>
<path d="M160.551 170.207C160.551 170.207 154.871 172.093 156.467 183.396C158.063 194.699 174.365 222.02 176.404 228.915C178.443 235.811 180.8 249.795 180.8 254.191C180.8 258.588 182.373 262.666 187.082 262.353C191.791 262.041 195.557 260.649 194.301 253.095C193.046 245.541 188.491 233.158 186.764 228.132C185.037 223.105 182.527 211.495 179.857 197.051C177.188 182.606 175.62 178.216 172.166 173.348C168.713 168.48 162.278 168.952 160.551 170.207Z" fill="white" stroke="#263238" stroke-miterlimit="10"/>
<path d="M186.764 228.132C186.543 227.478 186.298 226.706 186.048 225.831C185.344 227.237 184.147 228.334 182.686 228.915C180.799 229.739 178.74 230.086 176.688 229.926C178.659 237.1 180.8 250 180.8 254.191C180.8 258.588 182.373 262.666 187.082 262.354C191.791 262.041 195.557 260.65 194.301 253.095C193.046 245.541 188.491 233.158 186.764 228.132Z" fill="white" stroke="#263238" stroke-miterlimit="10"/>
<path d="M194.506 256.736C189.201 255.674 183.759 257.105 181.266 257.929C182.016 260.632 183.771 262.586 187.082 262.365C190.905 262.098 194.108 261.121 194.506 256.736Z" fill="#ADADAD" stroke="#263238" stroke-miterlimit="10"/>
<path d="M137.081 155.587C137.195 155.115 137.32 154.621 137.462 154.121C139.024 148.668 142.454 135.076 143.232 132.429C144.011 129.782 144.323 125.267 144.323 125.267C144.323 125.267 142.92 113.742 142.454 111.561C142.283 110.658 142.32 109.728 142.564 108.842C142.807 107.956 143.249 107.138 143.857 106.449C144.789 105.358 146.192 100.377 147.123 101.155C148.055 101.933 148.061 104.268 147.595 105.512C147.129 106.756 145.891 109.255 145.891 109.255V110.76L152.9 102.808C152.9 102.808 154.769 101.104 155.234 104.211C155.234 104.211 156.172 102.03 157.881 102.655C159.591 103.279 158.472 105.648 158.472 105.648C158.472 105.648 160.028 105.182 160.341 106.739C160.653 108.295 158.319 116.395 158.319 116.395C158.319 116.395 159.875 112.81 160.5 110.942C161.125 109.073 162.056 108.761 162.204 109.851C162.431 112.344 162.057 114.855 161.113 117.173C159.869 119.979 156.598 124.023 155.507 125.585C154.416 127.147 152.394 128.856 152.394 129.476C152.394 130.095 152.082 158.603 151.923 162.493C151.764 166.384 151.457 167.634 147.873 169.503C144.289 171.371 140.074 169.758 138.217 166.486C137.798 165.764 137.45 165.004 137.178 164.214" fill="white"/>
<path d="M137.081 155.587C137.195 155.115 137.32 154.621 137.462 154.121C139.024 148.668 142.454 135.076 143.232 132.429C144.011 129.782 144.323 125.267 144.323 125.267C144.323 125.267 142.92 113.742 142.454 111.561C142.283 110.658 142.32 109.728 142.564 108.842C142.807 107.956 143.249 107.138 143.857 106.449C144.789 105.358 146.192 100.377 147.123 101.155C148.055 101.933 148.061 104.268 147.595 105.512C147.129 106.756 145.891 109.255 145.891 109.255V110.76L152.9 102.808C152.9 102.808 154.769 101.104 155.234 104.211C155.234 104.211 156.172 102.03 157.881 102.655C159.591 103.279 158.472 105.648 158.472 105.648C158.472 105.648 160.028 105.182 160.341 106.739C160.653 108.295 158.319 116.395 158.319 116.395C158.319 116.395 159.875 112.81 160.5 110.942C161.125 109.073 162.056 108.761 162.204 109.851C162.431 112.344 162.057 114.855 161.113 117.173C159.869 119.979 156.598 124.023 155.507 125.585C154.416 127.147 152.394 128.856 152.394 129.476C152.394 130.095 152.082 158.603 151.923 162.493C151.764 166.384 151.457 167.634 147.873 169.503C144.289 171.371 140.074 169.758 138.217 166.486C137.798 165.764 137.45 165.004 137.178 164.214" stroke="#263238" stroke-miterlimit="10"/>
<path d="M158.495 105.642L154.445 116.076" stroke="#263238" stroke-miterlimit="10"/>
<path d="M155.223 104.239L150.083 114.52" stroke="#263238" stroke-miterlimit="10"/>
<path d="M145.88 110.76C145.88 110.76 144.477 113.407 144.477 114.168" stroke="#263238" stroke-miterlimit="10"/>
<path d="M163.016 125.579C163.016 122.461 162.55 112.805 162.55 112.186C162.55 111.567 162.863 110.158 163.641 110.158C164.419 110.158 164.885 111.714 164.885 112.186V107.823C164.865 107.599 164.918 107.374 165.035 107.181C165.151 106.989 165.327 106.838 165.535 106.751C165.743 106.665 165.973 106.646 166.192 106.699C166.411 106.752 166.608 106.873 166.753 107.045L167.378 107.823C167.378 107.823 166.753 105.018 168.781 105.018C170.809 105.018 171.428 107.977 171.428 107.977C171.868 107.982 172.299 108.099 172.681 108.318C173.063 108.537 173.383 108.849 173.609 109.226C174.234 110.47 175.631 117.479 176.103 119.348C176.574 121.217 174.399 125.596 172.831 129.629C171.263 133.662 170.338 142.085 171.127 148.47C171.917 154.854 172.683 158.909 171.127 162.175C169.571 165.441 168.634 167.787 163.499 167.941C158.364 168.094 157.421 164.981 156.331 160.153C155.24 155.325 160.227 145.823 162.096 139.904C163.965 133.986 164.43 130.561 163.965 129.317C163.572 128.091 163.255 126.843 163.016 125.579Z" fill="white" stroke="#263238" stroke-miterlimit="10"/>
<path d="M164.879 112.186C164.879 112.186 166.435 117.792 166.282 121.37" stroke="#263238" stroke-miterlimit="10"/>
<path d="M167.373 107.823C167.373 107.823 170.019 114.674 170.019 120.439" stroke="#263238" stroke-miterlimit="10"/>
<path d="M171.422 107.977C171.422 107.977 173.444 115.764 174.069 119.502" stroke="#263238" stroke-miterlimit="10"/>
<path d="M80.1562 259.241H83.4961L90.3121 211.256H118.224L120.547 259.241H123.307L125.579 159.506C125.579 159.054 125.4 158.62 125.08 158.301C124.761 157.981 124.327 157.802 123.875 157.802L82.6611 158.177L85.592 210.103L80.1562 259.241Z" fill="#263238" stroke="#263238" stroke-miterlimit="10"/>
<path d="M120.95 160.892H82.8428L85.3306 205.008H119.388L120.95 160.892Z" fill="#8C8C8C" stroke="#263238" stroke-miterlimit="10"/>
</svg>
