<svg xmlns="http://www.w3.org/2000/svg" viewBox="0 0 500 500"><g id="freepik--background-simple--inject-2"><path d="M332.19,51.14S255,13.41,179.08,49.81,64.61,171.85,31.55,240.18,17.18,384.23,75,424.63s97.27-4.31,178.48,2.94,103,21.92,170.51-17.71,80-150.73,27.11-240.33S332.19,51.14,332.19,51.14Z" style="fill:#263238"></path></g><g id="freepik--Labyrinth--inject-2"><line x1="211.23" y1="44" x2="211.23" y2="189.89" style="fill:none;stroke:#4f4f4f;stroke-miterlimit:10;stroke-width:3px"></line><polyline points="181.17 98.61 241.29 98.61 241.29 159.73 303.03 159.73" style="fill:none;stroke:#4f4f4f;stroke-miterlimit:10;stroke-width:3px"></polyline><polyline points="332.27 60.3 332.27 130.39 303.03 130.39 303.03 255.09 472 255.09" style="fill:none;stroke:#4f4f4f;stroke-miterlimit:10;stroke-width:3px"></polyline><line x1="303.03" y1="192.33" x2="452.5" y2="192.33" style="fill:none;stroke:#4f4f4f;stroke-miterlimit:10;stroke-width:3px"></line><line x1="336.33" y1="161.36" x2="440.32" y2="161.36" style="fill:none;stroke:#4f4f4f;stroke-miterlimit:10;stroke-width:3px"></line><polyline points="364.77 161.36 364.77 131.21 396.45 131.21 396.45 115.72" style="fill:none;stroke:#4f4f4f;stroke-miterlimit:10;stroke-width:3px"></polyline><line x1="332.27" y1="97.79" x2="363.14" y2="97.79" style="fill:none;stroke:#4f4f4f;stroke-miterlimit:10;stroke-width:3px"></line><polyline points="272.97 98.61 303.03 98.61 303.03 47.26" style="fill:none;stroke:#4f4f4f;stroke-miterlimit:10;stroke-width:3px"></polyline><line x1="272.16" y1="46.44" x2="272.16" y2="132.02" style="fill:none;stroke:#4f4f4f;stroke-miterlimit:10;stroke-width:3px"></line><line x1="243.72" y1="69.27" x2="272.97" y2="69.27" style="fill:none;stroke:#4f4f4f;stroke-miterlimit:10;stroke-width:3px"></line><line x1="150.3" y1="79.05" x2="150.3" y2="192.33" style="fill:none;stroke:#4f4f4f;stroke-miterlimit:10;stroke-width:3px"></line><polyline points="60.13 199.67 60.13 222.49 86.94 222.49 86.94 192.33 180.36 192.33 180.36 224.93 241.29 224.93 241.29 193.96 273.78 193.96 273.78 255.9 150.3 255.9" style="fill:none;stroke:#4f4f4f;stroke-miterlimit:10;stroke-width:3px"></polyline><polyline points="150.3 224.93 150.3 285.24 60.13 285.24" style="fill:none;stroke:#4f4f4f;stroke-miterlimit:10;stroke-width:3px"></polyline><polyline points="88.56 286.06 88.56 406.68 150.3 406.68" style="fill:none;stroke:#4f4f4f;stroke-miterlimit:10;stroke-width:3px"></polyline><line x1="87.75" y1="346.37" x2="56.88" y2="346.37" style="fill:none;stroke:#4f4f4f;stroke-miterlimit:10;stroke-width:3px"></line><line x1="24.38" y1="316.21" x2="57.69" y2="316.21" style="fill:none;stroke:#4f4f4f;stroke-miterlimit:10;stroke-width:3px"></line><polyline points="35.76 253.46 119.43 253.46 119.43 224.12" style="fill:none;stroke:#4f4f4f;stroke-miterlimit:10;stroke-width:3px"></polyline><polyline points="120.24 375.71 120.24 315.4 242.91 315.4 242.91 286.06 364.77 286.06 364.77 315.4 394.82 315.4 394.82 223.3 428.13 223.3" style="fill:none;stroke:#4f4f4f;stroke-miterlimit:10;stroke-width:3px"></polyline><polyline points="334.71 224.12 367.2 224.12 367.2 192.33" style="fill:none;stroke:#4f4f4f;stroke-miterlimit:10;stroke-width:3px"></polyline><polyline points="458.19 362.67 458.19 285.24 426.51 285.24 426.51 348 243.72 348 243.72 378.97 211.23 378.97 211.23 424.61" style="fill:none;stroke:#4f4f4f;stroke-miterlimit:10;stroke-width:3px"></polyline><line x1="210.42" y1="408.31" x2="179.55" y2="408.31" style="fill:none;stroke:#4f4f4f;stroke-miterlimit:10;stroke-width:3px"></line><polyline points="211.23 348 150.3 348 150.3 434.39" style="fill:none;stroke:#4f4f4f;stroke-miterlimit:10;stroke-width:3px"></polyline><line x1="181.17" y1="348.81" x2="181.17" y2="379.78" style="fill:none;stroke:#4f4f4f;stroke-miterlimit:10;stroke-width:3px"></line><line x1="181.98" y1="316.21" x2="181.98" y2="286.87" style="fill:none;stroke:#4f4f4f;stroke-miterlimit:10;stroke-width:3px"></line><line x1="211.23" y1="255.9" x2="211.23" y2="286.87" style="fill:none;stroke:#4f4f4f;stroke-miterlimit:10;stroke-width:3px"></line><polyline points="242.1 426.24 242.1 409.12 272.16 409.12" style="fill:none;stroke:#4f4f4f;stroke-miterlimit:10;stroke-width:3px"></polyline><line x1="273.78" y1="427.87" x2="273.78" y2="378.97" style="fill:none;stroke:#4f4f4f;stroke-miterlimit:10;stroke-width:3px"></line><polyline points="303.84 348 303.84 409.12 365.58 409.12 365.58 431.13" style="fill:none;stroke:#4f4f4f;stroke-miterlimit:10;stroke-width:3px"></polyline><line x1="335.52" y1="378.15" x2="449.25" y2="378.15" style="fill:none;stroke:#4f4f4f;stroke-miterlimit:10;stroke-width:3px"></line><line x1="396.45" y1="378.97" x2="396.45" y2="409.94" style="fill:none;stroke:#4f4f4f;stroke-miterlimit:10;stroke-width:3px"></line><line x1="333.9" y1="348.81" x2="333.9" y2="316.21" style="fill:none;stroke:#4f4f4f;stroke-miterlimit:10;stroke-width:3px"></line><line x1="303.84" y1="286.06" x2="303.84" y2="316.21" style="fill:none;stroke:#4f4f4f;stroke-miterlimit:10;stroke-width:3px"></line><line x1="272.97" y1="347.18" x2="272.97" y2="317.03" style="fill:none;stroke:#4f4f4f;stroke-miterlimit:10;stroke-width:3px"></line><line x1="211.23" y1="161.36" x2="181.17" y2="161.36" style="fill:none;stroke:#4f4f4f;stroke-miterlimit:10;stroke-width:3px"></line><line x1="179.55" y1="130.39" x2="151.93" y2="130.39" style="fill:none;stroke:#4f4f4f;stroke-miterlimit:10;stroke-width:3px"></line><polyline points="79.62 161.36 119.43 161.36 119.43 110.02" style="fill:none;stroke:#4f4f4f;stroke-miterlimit:10;stroke-width:3px"></polyline><line x1="56.06" y1="375.71" x2="56.06" y2="400.97" style="fill:none;stroke:#4f4f4f;stroke-miterlimit:10;stroke-width:3px"></line></g><g id="freepik--Character--inject-2"><ellipse cx="238.33" cy="458.49" rx="112.17" ry="12.94" style="fill:#263238;stroke:#263238;stroke-miterlimit:10"></ellipse><path d="M244.15,456.48H250l12-84.55h49.14l4.11,84.85h4.84l4-176a3,3,0,0,0-3-3l-72.56.66-34.13,93.72,38.51-.23Z" style="fill:#263238;stroke:#263238;stroke-miterlimit:10"></path><polygon points="315.97 283.26 248.88 283.26 253.26 360.93 313.23 360.93 315.97 283.26" style="fill:#8c8c8c;stroke:#263238;stroke-miterlimit:10"></polygon><polygon points="150.28 285.9 149.14 203.82 256.14 203.82 264.06 341.38 155.94 341.38 150.28 285.9" style="fill:#ccc;stroke:#263238;stroke-miterlimit:10"></polygon><path d="M149.14,203.82s8.49,4,11.89,36.79,4.53,81.52,4.53,81.52l-15.74-16Z" style="fill:#263238;stroke:#263238;stroke-miterlimit:10"></path><rect x="203.49" y="337.98" width="105.86" height="30" rx="3.33" style="fill:#b8b8b8;stroke:#263238;stroke-miterlimit:10"></rect><rect x="203.49" y="337.98" width="77.99" height="30" style="fill:#263238;stroke:#263238;stroke-miterlimit:10"></rect><path d="M235.24,188s-12.41,4.38-17.77,8.52-7.3,17.77-3.89,30.43,1.46,16.8-1.46,25.8-27.27,26.29-33.35,40.9-2.19,30.19,7.06,39.68,31.64,10.23,38.46,10.23,14.12-.49,14.12-.49,21.42-1,37.73-5.36,27.27-18.74,23.13-28.72-17.77-12.42-23.61-14.61-12.91-7.06-15.1-8.76-4.62-3.9-4.62-3.9,4.14-6.08,8-7.79,14.85,2,22.64-15.82a33.12,33.12,0,0,0,1-11.44c-.73-5.36,0-9.25.25-18.26s8-16.07,6.81-26.78-20.45-21.42-37.73-18.26S235.24,188,235.24,188Z" style="fill:#9D86DD;stroke:#263238;stroke-miterlimit:10"></path><path d="M197.65,292.48s21.67-10.72,47.39,2.37" style="fill:none;stroke:#263238;stroke-miterlimit:10"></path><path d="M201.33,286.84a41.63,41.63,0,0,1,23.79,1.47" style="fill:none;stroke:#263238;stroke-miterlimit:10"></path><path d="M253.11,189.91c-.58,9.46-2.44,42.42-.77,50.23,2,9.14,18.28,12.41,25.47,7.18s9.72-28.7,11.1-43.09c.49-5.18-1.91-10.86-5.37-16a40.48,40.48,0,0,0-26.63-4.88l-1.58.3c-1.25,2.15-2.06,3.72-2.06,3.72S253.2,188.29,253.11,189.91Z" style="fill:#fff;stroke:#263238;stroke-miterlimit:10"></path><path d="M249.07,192.47l-4-6.82c-7.56,1.58-9.8,2.32-9.8,2.32s-12.41,4.38-17.77,8.52-7.3,17.77-3.89,30.43c1.67,6.19,2,10.35,1.67,14,7.24,3.69,19,8.17,23.38,1.15C245.16,231.65,249.07,192.47,249.07,192.47Z" style="fill:#fff;stroke:#263238;stroke-miterlimit:10"></path><path d="M222.1,193.81s-12.66,3.41-15.09,20.45,15.58,44.79,20,53.56,16.8,29,22.64,31.16,11.93-8.77,11.93-20.45-15.34-34.33-19.48-43.82-7.06-24.1-7.06-24.1" style="fill:#fff;stroke:#263238;stroke-miterlimit:10"></path><path d="M312.66,214s-2.44,27-4.63,42.84-5.84,30.68-11.44,35.54-18.5.73-19.47-9.73S282,261,284.91,250.53s6.81-29.45,7.06-34.32S309.49,205,312.66,214Z" style="fill:#fff;stroke:#263238;stroke-miterlimit:10"></path><path d="M242.57,149.52s0,3-9.6,9.32-20.29,15.08-20.29,25.23,4.66,12.89,11.52,13.44A17.75,17.75,0,0,0,236,193.94s-2.19,5.48,5.48,12.34,14,6.31,17.28,4.94,31,10.14,41.68,9,17.55-3,16.72-14.8c0,0,9.88,4.38,17.28-4.39s2.47-18.37-4.66-26-10.42-28-16.45-38.94-26.66-22.34-46.67-14.67S246.41,144.86,242.57,149.52Z" style="fill:#263238;stroke:#263238;stroke-miterlimit:10"></path><path d="M294.66,148.11s11.62,18.34,25.69,22.63" style="fill:none;stroke:#8f8f8f;stroke-miterlimit:10"></path><path d="M321.33,184.22c8.54,6,14.13,10.13,10,14.64" style="fill:none;stroke:#8f8f8f;stroke-miterlimit:10"></path><path d="M289.25,149.19c3.78,7.39,10,17.5,18.26,24.6,2.67,2.3,5.37,4.36,8,6.26" style="fill:none;stroke:#8f8f8f;stroke-miterlimit:10"></path><path d="M284.88,139.55s.5,1.36,1.49,3.59" style="fill:none;stroke:#8f8f8f;stroke-miterlimit:10"></path><path d="M257.34,169.87a30.42,30.42,0,0,1-6.09.87" style="fill:none;stroke:#8f8f8f;stroke-miterlimit:10"></path><path d="M278.77,127.93s-2.55,25.34-7.34,33a19.43,19.43,0,0,1-9.15,7.33" style="fill:none;stroke:#8f8f8f;stroke-miterlimit:10"></path><path d="M224.09,189.78a10.82,10.82,0,0,0,5.14-.09" style="fill:none;stroke:#8f8f8f;stroke-miterlimit:10"></path><path d="M271.05,140.43c-1.47,6.17-4.25,13.6-9.41,17.46-9.78,7.34-30.57,4.9-38.52,14.68-5.51,6.78-5.83,11.34-4,14.1" style="fill:none;stroke:#8f8f8f;stroke-miterlimit:10"></path><path d="M272.65,130.38s-.12,2-.6,5" style="fill:none;stroke:#8f8f8f;stroke-miterlimit:10"></path><path d="M312.75,193.47a12.91,12.91,0,0,1,3.32,7.84" style="fill:none;stroke:#8f8f8f;stroke-miterlimit:10"></path><path d="M280.6,154.23s3,15.8,9.78,23.23c4.33,4.76,13.39,8.18,19.51,13.24" style="fill:none;stroke:#8f8f8f;stroke-miterlimit:10"></path><path d="M274.38,166.79s-.55,8-4.39,9.6-9.6-.55-9.6-.55S272.19,172.83,274.38,166.79Z" style="fill:#fff;stroke:#263238;stroke-miterlimit:10"></path><path d="M277.67,165.42A11,11,0,0,1,273,176.94a11.81,11.81,0,0,1-12.89.55s-2.19,7.13-4.94,18.1,4.39,20.56,8,25.77,10.15,7.12,12.89,5.75,5.75-4.38,13.7-10.68,12.34-18.1,12.62-18.92S278.22,180.5,277.67,165.42Z" style="fill:#fff;stroke:#263238;stroke-miterlimit:10"></path><path d="M287.25,199.53s-2,16-4.85,20.24c-1.22,1.83-5.67-1-5.67-1" style="fill:none;stroke:#263238;stroke-miterlimit:10"></path><path d="M276.14,307.6s-2.76,12.63-6.44,16.59S259.53,321,259.53,321s-10,18.91-8.28,20.05,18.43,2.08,28.9-3,9.39-26.1,6.56-29.78S280.11,304.48,276.14,307.6Z" style="fill:#8f8f8f;stroke:#263238;stroke-miterlimit:10"></path><path d="M245.07,301.6s-11.33,5.8-16,30.67-7.18,76.28-8.29,84.85-3,30.4-3,34,1.94,4.15,5.81,5.25,9.67,1.66,17.41,3.6,21.55,0,26.25-1.66-.27-8.57-7.18-12.71S244.24,437,240.1,432s-3-13.54-2.77-17.13S256.13,353,260,342.5s10.22-23.22,7.46-33.44S251.43,296.9,245.07,301.6Z" style="fill:#fff;stroke:#263238;stroke-miterlimit:10"></path><path d="M260,445.59c-6.91-4.15-15.76-8.57-19.9-13.55-2.3-2.75-3-6.6-3.09-10.11-9.76,2.2-14.3-1.73-16.27-4.7-1.11,8.64-3,30.3-3,33.88s1.94,4.15,5.81,5.25,9.67,1.66,17.41,3.6,21.55,0,26.25-1.66S266.91,449.73,260,445.59Z" style="fill:#fff;stroke:#263238;stroke-miterlimit:10"></path><path d="M223.52,456.36c.39.12.82.22,1.25.32a21.49,21.49,0,0,0-4.29-13,12.71,12.71,0,0,0-2.13-2.22c-.38,4.63-.64,8.37-.64,9.68C217.71,454.71,219.65,455.26,223.52,456.36Z" style="fill:#adadad;stroke:#263238;stroke-miterlimit:10"></path><path d="M250,460.76c6.77-.11,14-1.35,17.19-2.46s1.88-4.78-1.54-8.29c-2.2.84-5,2-8.68,3.59C252.12,455.77,250.51,458.74,250,460.76Z" style="fill:#adadad;stroke:#263238;stroke-miterlimit:10"></path><path d="M282.66,299.66s-10,3.32-7.19,23.22,31.51,68,35.1,80.14,7.74,36.76,7.74,44.5,2.77,14.92,11.06,14.37,14.92-3,12.71-16.3-10.23-35.1-13.27-43.95-7.46-29.29-12.16-54.72-7.46-33.16-13.54-41.73S285.7,297.45,282.66,299.66Z" style="fill:#fff;stroke:#263238;stroke-miterlimit:10"></path><path d="M328.81,401.64c-.39-1.15-.82-2.51-1.26-4.05a11.29,11.29,0,0,1-5.92,5.43,22.12,22.12,0,0,1-10.56,1.78c3.47,12.63,7.24,35.34,7.24,42.72,0,7.74,2.77,14.92,11.06,14.37s14.92-3,12.71-16.3S331.85,410.49,328.81,401.64Z" style="fill:#fff;stroke:#263238;stroke-miterlimit:10"></path><path d="M342.44,452c-9.34-1.87-18.92.65-23.31,2.1,1.32,4.76,4.41,8.2,10.24,7.81C336.1,461.44,341.74,459.72,342.44,452Z" style="fill:#adadad;stroke:#263238;stroke-miterlimit:10"></path><path d="M241.34,273.92c.2-.83.42-1.7.67-2.58,2.75-9.6,8.79-33.53,10.16-38.19s1.92-12.61,1.92-12.61-2.47-20.29-3.29-24.13a10.61,10.61,0,0,1,2.47-9c1.64-1.92,4.11-10.69,5.75-9.32s1.65,5.48.83,7.67-3,6.59-3,6.59V195l12.34-14s3.29-3,4.11,2.47c0,0,1.65-3.84,4.66-2.74S279,186,279,186s2.74-.82,3.29,1.92-3.56,17-3.56,17,2.74-6.31,3.84-9.6,2.74-3.84,3-1.92a27.55,27.55,0,0,1-1.92,12.89c-2.19,4.94-7.95,12.06-9.87,14.81s-5.48,5.76-5.48,6.85-.55,51.28-.83,58.13-.82,9.05-7.13,12.34-13.73.45-17-5.31a22.79,22.79,0,0,1-1.83-4" style="fill:#fff;stroke:#263238;stroke-miterlimit:10"></path><line x1="279.04" y1="185.99" x2="271.91" y2="204.36" style="fill:none;stroke:#263238;stroke-miterlimit:10"></line><line x1="273.28" y1="183.52" x2="264.23" y2="201.62" style="fill:none;stroke:#263238;stroke-miterlimit:10"></line><path d="M256.83,195s-2.47,4.66-2.47,6" style="fill:none;stroke:#263238;stroke-miterlimit:10"></path><path d="M287,221.09c0-5.49-.82-22.49-.82-23.58s.55-3.57,1.92-3.57,2.19,2.74,2.19,3.57v-7.68a1.87,1.87,0,0,1,3.29-1.37l1.1,1.37s-1.1-4.94,2.47-4.94,4.66,5.21,4.66,5.21a4.54,4.54,0,0,1,3.84,2.2c1.1,2.19,3.56,14.53,4.39,17.82s-3,11-5.76,18.1-4.39,21.93-3,33.17,2.74,18.38,0,24.13-4.39,9.88-13.43,10.15-10.7-5.21-12.62-13.71,6.86-25.23,10.15-35.65,4.11-16.45,3.29-18.64A55.07,55.07,0,0,1,287,221.09Z" style="fill:#fff;stroke:#263238;stroke-miterlimit:10"></path><path d="M290.28,197.51s2.74,9.87,2.47,16.17" style="fill:none;stroke:#263238;stroke-miterlimit:10"></path><path d="M294.67,189.83s4.66,12.06,4.66,22.21" style="fill:none;stroke:#263238;stroke-miterlimit:10"></path><path d="M301.8,190.1s3.56,13.71,4.66,20.29" style="fill:none;stroke:#263238;stroke-miterlimit:10"></path><path d="M141.12,456.41H147l12-84.48h49.14l4.09,84.48h4.86l4-175.59a3,3,0,0,0-3-3l-72.56.66,5.16,91.42Z" style="fill:#263238;stroke:#263238;stroke-miterlimit:10"></path><polygon points="212.94 283.26 145.85 283.26 150.23 360.93 210.19 360.93 212.94 283.26" style="fill:#8c8c8c;stroke:#263238;stroke-miterlimit:10"></polygon></g></svg>