<svg width="380" height="380" viewBox="0 0 380 380" fill="none" xmlns="http://www.w3.org/2000/svg">
<path d="M357.132 219.511C366.761 174.564 358.066 127.726 329.384 89.0644C304 54.834 269.8 23.56 226.412 16.2032C180.12 8.4056 138.829 26.22 114.76 66.2112C102.304 86.8832 93.2976 109.448 84.36 131.784C77.4288 149.006 71.364 168.583 59.8196 183.426C42.712 205.344 23.56 227.863 16.3552 255.314C10.6172 277.301 17.8752 297.548 36.1152 310.908C65.9452 332.766 101.308 334.339 136.876 332.553C158.59 331.353 180.136 328.044 201.21 322.673C220.111 317.954 238.572 310.399 258.05 308.37C287.143 305.33 312.01 306.85 331.558 281.268C345.04 263.591 352.518 241.057 357.132 219.511Z" fill="#F6BFFF"/>
<path opacity="0.7" d="M357.132 219.511C366.761 174.564 358.066 127.726 329.384 89.0644C304 54.834 269.8 23.56 226.412 16.2032C180.12 8.4056 138.829 26.22 114.76 66.2112C102.304 86.8832 93.2976 109.448 84.36 131.784C77.4288 149.006 71.364 168.583 59.8196 183.426C42.712 205.344 23.56 227.863 16.3552 255.314C10.6172 277.301 17.8752 297.548 36.1152 310.908C65.9452 332.766 101.308 334.339 136.876 332.553C158.59 331.353 180.136 328.044 201.21 322.673C220.111 317.954 238.572 310.399 258.05 308.37C287.143 305.33 312.01 306.85 331.558 281.268C345.04 263.591 352.518 241.057 357.132 219.511Z" fill="white"/>
<path d="M142.743 207.085L138.578 218.637C138.578 218.637 115.619 252.183 109.197 262.451C102.775 272.718 103.535 271.441 103.877 274.975C104.219 278.509 119.13 327.499 119.449 332.637C119.653 335.42 119.653 338.214 119.449 340.997L125.529 340.031C124.649 342.322 123.463 344.482 122.003 346.453C119.723 349.341 119.434 350.618 115.581 353.506C111.728 356.394 108.847 356.394 111.089 357.679C113.331 358.963 122.96 358.963 125.848 357.04C128.736 355.117 130.667 351.583 132.27 349.98L134.839 347.411L135.797 350.299C135.797 350.299 139.012 346.773 140.288 346.127C141.565 345.481 142.568 343.558 142.568 343.558C142.568 343.558 141.603 340.997 140.646 339.066C139.688 337.136 135.827 334.255 135.827 334.255C135.827 334.255 133.053 307.655 130.507 295.131C127.961 282.606 129.588 282.37 128.942 280.44C128.488 279.126 127.952 277.841 127.338 276.594L154.28 241.794C154.514 241.549 154.807 241.369 155.131 241.269C155.435 241.179 155.756 241.164 156.067 241.224C156.377 241.285 156.669 241.42 156.916 241.618C157.163 241.816 157.359 242.071 157.486 242.361C157.614 242.651 157.669 242.967 157.647 243.283C156.963 253.407 155.838 282.895 157.206 286.991C158.81 291.802 170.43 309.639 171.319 311.379C173.599 315.841 184.368 329.771 186.299 333.944C188.229 338.116 190.145 342.608 190.145 342.608L195.921 339.081C195.921 339.081 197.532 341.323 195.921 343.254C194.309 345.184 189.506 352.556 185.98 354.806C182.453 357.055 183.7 358.978 183.7 358.978C183.7 358.978 196.536 358.651 198.778 358.332C201.02 358.013 202.631 355.444 204.235 353.202C205.647 351.031 206.934 348.78 208.088 346.461L210.657 348.741C210.657 348.741 212.26 345.526 213.226 342.957C213.815 341.309 214.138 339.577 214.183 337.827C214.183 337.827 210.338 334.293 207.769 333.336C205.2 332.378 202.951 331.405 202.951 331.405L199.743 326.595C199.743 326.595 191.079 296.43 187.226 289.051C185.158 284.909 182.453 281.119 179.208 277.818C179.208 277.818 189.582 239.818 191.505 231.503C192.661 226.53 193.518 221.493 194.074 216.417C186.047 210.706 176.84 206.873 167.132 205.2C150.769 202.274 142.743 207.085 142.743 207.085Z" fill="#4D4D4E" stroke="#263238" stroke-linecap="round" stroke-linejoin="round"/>
<path d="M159.494 211.128V214.761C159.494 214.761 153.839 220.415 154.447 222.239C155.055 224.063 156.469 232.119 156.469 232.119" stroke="#7A7A7A" stroke-linecap="round" stroke-linejoin="round"/>
<path d="M163.537 211.325L163.94 215.369C163.94 215.369 158.688 222.034 158.483 223.045C158.413 224.126 158.482 225.211 158.688 226.275" stroke="#7A7A7A" stroke-linecap="round" stroke-linejoin="round"/>
<path d="M169.191 214.358C174.026 215.682 178.708 217.511 183.16 219.815" stroke="#7A7A7A" stroke-linecap="round" stroke-linejoin="round"/>
<path d="M183.365 222.573C179.925 221.184 176.408 219.991 172.832 219.001" stroke="#7A7A7A" stroke-linecap="round" stroke-linejoin="round"/>
<path d="M188.184 224.458L185.904 223.562" stroke="#7A7A7A" stroke-linecap="round" stroke-linejoin="round"/>
<path d="M168.819 233.267C172.702 231.899 177.802 230.508 182.126 230.721" stroke="#7A7A7A" stroke-linecap="round" stroke-linejoin="round"/>
<path d="M162.731 235.775C162.731 235.775 163.894 235.205 165.771 234.445" stroke="#7A7A7A" stroke-linecap="round" stroke-linejoin="round"/>
<path d="M148.269 223.372L149.599 224.664" stroke="#7A7A7A" stroke-linecap="round" stroke-linejoin="round"/>
<path d="M141.923 217.185L146.323 221.479" stroke="#7A7A7A" stroke-linecap="round" stroke-linejoin="round"/>
<path d="M142.728 213.149L150.001 213.955" stroke="#7A7A7A" stroke-linecap="round" stroke-linejoin="round"/>
<path d="M184.391 135.485C184.391 135.485 171.654 137.005 167.983 137.864C164.312 138.723 161.72 138.723 160.854 139.802C159.988 140.881 152.22 147.79 148.55 149.72C144.879 151.65 133.866 154.69 133.646 155.336C133.426 155.982 135.166 166.782 134.725 170.232C134.284 173.683 133.866 175.849 133.866 175.849L154.386 167.861C154.386 167.861 149.203 187.727 147.258 192.69C145.312 197.653 144.886 200.898 143.374 201.978C141.862 203.057 140.562 202.844 140.562 204.782C140.562 206.72 141.862 209.342 142.508 209.532C143.154 209.722 156.545 208.012 161.728 208.886C166.911 209.76 186.557 218.173 190.661 220.978C194.765 223.782 194.978 222.498 196.491 219.458C198.003 216.418 198.01 210.178 198.01 209.524C198.01 208.871 214.191 173.28 214.191 173.28C214.191 173.28 216.562 191.201 218.941 192.5C221.32 193.8 226.928 193.58 229.52 188.396C232.112 183.213 237.508 175.476 234.924 169.396C232.34 163.316 228.844 155.792 226.928 151.468C225.013 147.144 223.258 146.718 218.295 144.78C213.332 142.842 200.154 136.572 198.862 136.359C197.57 136.146 184.391 135.485 184.391 135.485Z" fill="white" stroke="#263238" stroke-linecap="round" stroke-linejoin="round"/>
<path d="M175.461 194.704C179.869 200.61 186.679 210.254 188.343 215.62" stroke="#263238" stroke-linecap="round" stroke-linejoin="round"/>
<path d="M171.585 189.65C171.585 189.65 172.186 190.41 173.166 191.68" stroke="#263238" stroke-linecap="round" stroke-linejoin="round"/>
<path d="M192.827 214.213C193.017 214.593 193.192 214.973 193.367 215.338" stroke="#263238" stroke-linecap="round" stroke-linejoin="round"/>
<path d="M188.898 207.244C188.898 207.244 190.236 209.38 191.619 211.903" stroke="#263238" stroke-linecap="round" stroke-linejoin="round"/>
<path d="M151.483 207.526C151.483 207.526 165.445 206.682 168.515 207.244" stroke="#263238" stroke-linecap="round" stroke-linejoin="round"/>
<path d="M165.718 208.635C165.718 208.635 174.078 209.479 177.452 210.869" stroke="#263238" stroke-linecap="round" stroke-linejoin="round"/>
<path d="M214.191 173.272L211.903 165.748L211.485 172.375L202.373 171.957L211.903 177.551L214.191 173.272Z" fill="#263238" stroke="#263238" stroke-linecap="round" stroke-linejoin="round"/>
<path d="M154.379 168.522L160.854 145.418" stroke="#263238" stroke-linecap="round" stroke-linejoin="round"/>
<path d="M157.616 156.431L155.162 150.221L154.744 164.509L151.643 164.92L154.379 167.876L157.616 156.431Z" fill="#263238" stroke="#263238" stroke-linecap="round" stroke-linejoin="round"/>
<path d="M135.804 153.626C135.804 153.626 140.988 158.589 141.884 162.473C142.781 166.356 139.726 172.406 138.214 174.785C136.701 177.164 134.976 177.825 130.652 178.243C126.327 178.661 121.585 174.998 121.372 171.327C121.159 167.656 126.525 152.76 135.804 153.626Z" fill="white" stroke="#263238" stroke-linecap="round" stroke-linejoin="round"/>
<path d="M174.245 160.748C174.245 160.748 163.233 174.139 154.592 179.102C145.95 184.064 140.554 187.522 140.554 187.522L137.514 201.962C137.514 201.962 149.606 200.237 153.277 198.922C156.948 197.608 157.837 196.977 157.837 196.977C157.837 196.977 165.437 181.017 170.582 172.148C175.727 163.278 176.411 162.002 176.411 162.002L174.245 160.748Z" fill="#263238" stroke="#263238" stroke-linecap="round" stroke-linejoin="round"/>
<path d="M175.758 144.985C175.758 145.631 174.238 160.748 174.238 160.748L176.396 162.047L190.646 151.46C190.646 151.46 191.292 148.876 190.433 148.876C189.575 148.876 182.659 153.839 182.659 153.839L176.579 151.46L177.225 145.206L175.758 144.985Z" fill="#263238" stroke="#263238" stroke-linecap="round" stroke-linejoin="round"/>
<path d="M183.304 153.383L182.666 153.839L181.853 153.52L174.891 154.181C174.724 155.906 174.564 157.533 174.443 158.741L181.8 158.042L188.769 152.859L183.304 153.383Z" fill="#F6BFFF" stroke="#263238" stroke-linecap="round" stroke-linejoin="round"/>
<path d="M169.723 173.667L160.877 174.511C158.921 176.214 156.818 177.74 154.592 179.071L153.52 179.694L167.124 178.395C168.013 176.753 168.887 175.142 169.723 173.667Z" fill="#F6BFFF" stroke="#263238" stroke-linecap="round" stroke-linejoin="round"/>
<path d="M139.521 192.485L161.021 190.441C161.736 188.989 162.541 187.401 163.377 185.698L140.486 187.879L139.521 192.485Z" fill="#F6BFFF" stroke="#263238" stroke-linecap="round" stroke-linejoin="round"/>
<path d="M171.692 163.704C170.468 165.087 168.88 166.82 167.079 168.659L172.961 168.097C174.352 165.695 175.195 164.213 175.697 163.324L171.692 163.704Z" fill="#F6BFFF" stroke="#263238" stroke-linecap="round" stroke-linejoin="round"/>
<path d="M185.904 131.601C185.904 131.601 179.429 134.839 178.562 136.351C177.696 137.864 176.183 143.039 172.946 147.143C169.708 151.247 166.037 154.052 169.275 152.76C172.513 151.468 177.08 146.68 177.08 146.68L179.026 152.76C179.026 152.76 180.105 153.193 182.066 152.327C184.027 151.46 188.321 148.443 188.321 150.168C188.321 151.893 187.029 160.314 188.321 159.022C189.613 157.73 190.266 153.406 195.449 149.302C200.633 145.198 205.17 142.827 205.383 138.077C205.595 133.327 204.091 132.247 199.766 131.168C195.442 130.089 186.337 130.72 185.904 131.601Z" fill="white" stroke="#263238" stroke-linecap="round" stroke-linejoin="round"/>
<path d="M183.745 127.497C183.745 127.497 184.391 130.948 182.446 136.564C180.5 142.181 175.971 154.485 179.854 153.193C183.738 151.901 198.854 139.589 200.154 137.864C201.453 136.139 204.714 123.173 204.714 123.173C204.714 123.173 191.976 126.631 188.298 127.064C184.619 127.497 183.745 127.497 183.745 127.497Z" fill="#A8A8A8" stroke="#263238" stroke-linecap="round" stroke-linejoin="round"/>
<path d="M183.745 127.498C183.972 129.534 183.823 131.595 183.304 133.578C201.712 130.036 204.691 123.158 204.691 123.158C204.691 123.158 191.953 126.616 188.275 127.049C184.596 127.482 183.745 127.498 183.745 127.498Z" fill="#263238" stroke="#263238" stroke-linecap="round" stroke-linejoin="round"/>
<path d="M211.166 117.998C211.166 117.998 209.221 115.619 217.429 113.027C225.637 110.436 230.387 107.844 229.307 102.881C228.228 97.9183 222.399 96.6187 222.399 96.6187C222.399 96.6187 227.362 87.3315 224.124 85.3859C220.887 83.4403 216.995 86.2523 216.995 86.2523C216.995 86.2523 217.862 79.3439 214.404 79.1235C210.946 78.9031 207.495 81.9355 207.495 81.9355C207.495 81.9355 207.283 74.8067 201.233 76.1063C195.183 77.4059 197.349 83.6607 197.349 83.6607C197.349 83.6607 190.441 80.8563 188.062 85.1807C185.683 89.5051 187.629 91.2607 187.629 91.2607C187.629 91.2607 185.258 92.1271 185.258 94.5059C185.258 96.8847 187.416 99.2559 189.141 99.4687C190.867 99.6815 193.458 98.3895 195.624 98.8227C197.79 99.2559 205.983 104.006 203.612 111.56C201.241 119.115 204.045 120.414 205.132 121.06C206.219 121.706 210.307 119.723 211.166 117.998Z" fill="#263238" stroke="#263238" stroke-linecap="round" stroke-linejoin="round"/>
<path d="M209 105.686C209 105.686 212.04 102.015 212.04 99.6435C212.04 97.2723 203.832 91.4355 198.869 91.4355C193.907 91.4355 186.778 97.4775 186.778 98.9899C186.778 100.502 186.778 101.369 185.699 102.448C184.619 103.527 180.515 105.686 179.436 108.064C178.357 110.443 174.686 125.985 175.545 126.844C176.404 127.703 181.306 128.638 182.674 128.577C187.234 128.356 196.278 128.577 199.303 127.498C201.192 126.794 202.944 125.765 204.478 124.458C206.56 124.561 208.639 124.192 210.558 123.378C213.15 122.079 216.175 117.982 213.363 116.25C210.551 114.517 206.454 115.391 206.454 115.391C206.454 115.391 205.808 114.524 206.887 113.012C207.967 111.5 207.967 111.72 207.967 110.641C207.967 109.562 207.283 107.411 209 105.686Z" fill="#A8A8A8" stroke="#263238" stroke-linecap="round" stroke-linejoin="round"/>
<path d="M193.04 100.069C192.445 101.352 191.461 102.416 190.228 103.109C188.07 104.409 183.753 105.267 184.832 107C185.911 108.733 188.503 108.938 190.228 108.938C190.707 108.938 191.169 108.762 191.528 108.445C191.886 108.127 192.116 107.689 192.174 107.213" stroke="#263238" stroke-linecap="round" stroke-linejoin="round"/>
<path d="M184.178 111.72C186.598 112.204 189.054 112.492 191.52 112.579C194.244 112.71 196.965 112.27 199.508 111.287C199.508 111.287 195.404 116.903 193.032 118.628C191.826 119.58 190.434 120.268 188.946 120.649C187.458 121.03 185.906 121.095 184.391 120.84C181.154 120.194 180.287 118.461 181.154 117.169C182.02 115.877 184.178 111.72 184.178 111.72Z" fill="#263238" stroke="#263238" stroke-linecap="round" stroke-linejoin="round"/>
<path d="M197.159 114.327C198.482 112.708 199.508 111.287 199.508 111.287C196.965 112.27 194.244 112.71 191.52 112.579C189.054 112.492 186.598 112.204 184.179 111.72L183.282 113.392C187.713 115.07 192.543 115.395 197.159 114.327Z" fill="white" stroke="#263238" stroke-linecap="round" stroke-linejoin="round"/>
<path d="M180.979 117.466C180.455 118.712 181.427 120.209 184.391 120.802C186.987 121.279 189.668 120.77 191.908 119.373C192.577 118.948 193.033 118.613 193.033 118.613C193.033 118.613 187.583 120.642 180.979 117.466Z" fill="white" stroke="#263238" stroke-linecap="round" stroke-linejoin="round"/>
<path d="M197.349 104.394C197.349 104.394 200.389 103.314 202.099 105.914" stroke="#263238" stroke-linecap="round" stroke-linejoin="round"/>
<path d="M190.22 102.228C190.22 102.228 189.362 100.936 187.416 102.228" stroke="#263238" stroke-linecap="round" stroke-linejoin="round"/>
<path d="M201.02 98.1311C201.02 98.1311 203.824 99.4231 204.06 103.74" stroke="#263238" stroke-width="2" stroke-linecap="round" stroke-linejoin="round"/>
<path d="M192.599 97.2799C191.744 97.1298 190.864 97.1897 190.037 97.4545C189.21 97.7193 188.459 98.181 187.849 98.7999" stroke="#263238" stroke-width="2" stroke-linecap="round" stroke-linejoin="round"/>
<path d="M223.911 173.06C223.911 173.06 216.137 178.456 215.27 180.401C214.404 182.347 215.703 192.28 216.6 195.32C217.497 198.36 220.491 198.558 224.595 198.778C228.699 198.998 233.229 198.991 235.608 194.887C237.987 190.783 237.333 186.253 233.449 181.503C230.656 178.28 227.449 175.441 223.911 173.06Z" fill="white" stroke="#263238" stroke-linecap="round" stroke-linejoin="round"/>
<path d="M229.741 122.527C229.741 122.527 227.149 120.156 226.07 120.589C224.991 121.022 219.374 122.527 220.233 124.906C221.092 127.285 225.416 126.198 226.929 125.765C227.676 125.586 228.35 125.177 228.854 124.597C229.358 124.016 229.668 123.293 229.741 122.527Z" fill="#A8A8A8" stroke="#263238" stroke-linecap="round" stroke-linejoin="round"/>
<path d="M236.003 122.527C236.003 122.527 232.963 118.423 230.82 119.29C228.676 120.156 228.008 123.394 228.008 123.394C228.008 123.394 224.77 124.04 224.124 125.339L223.478 126.631C223.478 126.631 220.666 126.844 220.233 128.151C219.97 128.991 219.827 129.863 219.807 130.743C219.328 130.912 218.9 131.197 218.56 131.574C218.22 131.951 217.98 132.408 217.862 132.901C217.428 134.626 217.862 135.28 218.728 137.461C219.594 139.642 222.399 142.644 223.288 143.724C224.177 144.803 227.392 145.662 227.612 146.315C227.833 146.969 227.825 148.474 226.959 153.224C226.092 157.974 223.721 170.278 221.776 176.974C219.83 183.669 217.679 185.828 220.05 191.657C222.422 197.486 225.021 198.352 228.258 197.486C230.734 196.8 232.99 195.485 234.807 193.668C236.623 191.851 237.939 189.595 238.625 187.12C240.35 180.644 238.404 169.64 238.404 162.29C238.404 154.941 238.625 142.644 238.404 137.21C238.184 131.776 236.003 122.527 236.003 122.527Z" fill="#A8A8A8" stroke="#263238" stroke-linecap="round" stroke-linejoin="round"/>
<path d="M163.013 124.906C163.013 124.906 157.183 126.198 154.592 126.631C152 127.064 150.032 125.765 149.629 124.473C149.226 123.181 146.171 121.668 146.171 121.668C146.171 121.668 147.25 120.369 153.513 118.628C159.775 116.888 163.666 120.148 163.666 120.148L163.013 124.906Z" fill="#A8A8A8" stroke="#263238" stroke-linecap="round" stroke-linejoin="round"/>
<path d="M142.546 127.452L147.638 125.932C149.796 125.286 151.141 122.322 151.141 122.322C151.141 122.322 151.354 123.842 152.661 123.614C153.968 123.386 159.79 122.968 161.09 122.968C162.389 122.968 167.565 121.448 167.565 119.51C167.565 117.572 162.815 112.389 161.948 110.876C161.082 109.364 158.498 108.718 156.765 108.718C155.032 108.718 153.315 109.797 148.132 113.035C142.948 116.272 139.49 118.005 138.411 119.51C137.332 121.015 121.121 149.089 120.08 152.327C119.039 155.564 116.196 162.04 116.842 164.631C117.64 167.831 120.718 171.015 122.998 173.227C126.183 176.335 133.015 175.013 135.044 171.038C136.77 167.641 137.324 162.777 137.324 159.022C137.324 154.052 136.245 150.602 137.324 143.693C138.404 136.785 142.546 127.452 142.546 127.452Z" fill="#A8A8A8" stroke="#263238" stroke-linecap="round" stroke-linejoin="round"/>
<path d="M159.775 123.606C159.775 123.606 159.775 125.552 160.421 125.765C161.067 125.977 165.391 126.198 165.604 124.906C165.817 123.614 165.604 122.96 164.525 122.527C163.446 122.094 160.208 122.314 159.775 123.606Z" fill="#A8A8A8" stroke="#263238" stroke-linecap="round" stroke-linejoin="round"/>
<path d="M151.141 122.314L153.079 120.802L151.567 119.29" stroke="#263238" stroke-linecap="round" stroke-linejoin="round"/>
<path d="M155.671 111.515C155.671 111.515 158.908 117.997 159.562 119.289C160.216 120.581 159.775 120.369 158.908 121.015C158.042 121.661 154.812 123.393 154.812 123.393" stroke="#263238" stroke-linecap="round" stroke-linejoin="round"/>
<path d="M159.6 111.082C159.6 111.082 164.16 119.29 163.704 120.156C163.248 121.022 159.813 123.606 159.813 123.606" stroke="#263238" stroke-linecap="round" stroke-linejoin="round"/>
<path d="M163.233 113.027C163.233 113.027 166.471 118.423 166.037 119.935C165.604 121.448 163.811 122.497 163.811 122.497" stroke="#263238" stroke-linecap="round" stroke-linejoin="round"/>
<path d="M370.88 358.979H15.2456" stroke="#263238" stroke-linecap="round" stroke-linejoin="round"/>
</svg>
