<svg width="254" height="63" viewBox="0 0 254 63" fill="none" xmlns="http://www.w3.org/2000/svg">
<path d="M2.256 45.24V39L29.856 39.048C31.264 39.048 32.336 38.728 33.072 38.088C33.84 37.416 34.224 36.344 34.224 34.872C34.224 33.4 33.84 32.344 33.072 31.704C32.336 31.032 31.264 30.696 29.856 30.696H12.672C9.12 30.696 6.352 29.848 4.368 28.152C2.416 26.424 1.44 23.896 1.44 20.568C1.44 17.24 2.416 14.728 4.368 13.032C6.352 11.304 9.12 10.44 12.672 10.44H39.648V16.68L13.488 16.632C12.112 16.632 11.04 16.952 10.272 17.592C9.504 18.2 9.12 19.192 9.12 20.568C9.12 21.944 9.504 22.952 10.272 23.592C11.04 24.2 12.112 24.504 13.488 24.504H30.672C34.224 24.504 36.976 25.384 38.928 27.144C40.912 28.872 41.904 31.448 41.904 34.872C41.904 38.264 40.912 40.84 38.928 42.6C36.976 44.36 34.224 45.24 30.672 45.24H2.256ZM51.5674 55.8V50.28H66.0634C67.9834 50.28 68.9434 49.304 68.9434 47.352V45H54.1114C51.2954 45 49.2314 44.296 47.9194 42.888C46.6394 41.48 45.9994 39.656 45.9994 37.416V20.28H52.9594V36.6C52.9594 38.52 53.9194 39.48 55.8394 39.48H68.7034V20.28H75.9034V48.216C75.9034 50.488 75.2474 52.312 73.9354 53.688C72.6234 55.096 70.5754 55.8 67.7914 55.8H51.5674ZM81.2025 45V20.28H102.755C105.571 20.28 107.619 20.984 108.899 22.392C110.211 23.768 110.867 25.592 110.867 27.864V45H103.906V28.68C103.906 26.76 102.947 25.8 101.027 25.8H88.1625V45H81.2025ZM128.754 45C125.97 45 123.922 44.312 122.61 42.936C121.298 41.528 120.642 39.688 120.642 37.416V25.8H113.49V20.28H120.642V12.696H127.602V20.28H137.874V25.8H127.602V36.552C127.602 38.504 128.562 39.48 130.482 39.48H139.218V45H128.754ZM142.796 45V10.68H149.756V20.28H164.348C167.164 20.28 169.212 20.984 170.492 22.392C171.804 23.768 172.46 25.592 172.46 27.864V45H165.5V28.68C165.5 26.76 164.54 25.8 162.62 25.8H149.756V45H142.796ZM177.484 45V20.28H184.444V45H177.484ZM177.436 16.2V10.776H184.492V16.2H177.436ZM195.19 45V25.8H188.038V20.28H195.19V18.36C195.19 16.088 195.846 14.264 197.158 12.888C198.47 11.48 200.518 10.776 203.302 10.776H213.766V16.296H205.03C203.11 16.296 202.15 17.272 202.15 19.224V20.28H212.422V25.8H202.15V45H195.19ZM222.474 55.8V50.28H236.97C238.89 50.28 239.85 49.304 239.85 47.352V45H225.018C222.202 45 220.138 44.296 218.826 42.888C217.546 41.48 216.906 39.656 216.906 37.416V20.28H223.866V36.6C223.866 38.52 224.826 39.48 226.746 39.48H239.61V20.28H246.81V48.216C246.81 50.488 246.154 52.312 244.842 53.688C243.53 55.096 241.482 55.8 238.698 55.8H222.474Z" fill="white"/>
</svg>
