<?xml version="1.0" standalone="no"?>
<!DOCTYPE svg PUBLIC "-//W3C//DTD SVG 20010904//EN"
 "http://www.w3.org/TR/2001/REC-SVG-20010904/DTD/svg10.dtd">
<svg version="1.0" xmlns="http://www.w3.org/2000/svg"
 width="356.000000pt" height="291.000000pt" viewBox="0 0 356.000000 291.000000"
 preserveAspectRatio="xMidYMid meet">
<metadata>
Created by potrace 1.16, written by Peter Selinger 2001-2019
</metadata>
<g transform="translate(0.000000,291.000000) scale(0.032423,-0.040305)"
fill="#000000" stroke="none">
<path d="M26 7189 l-26 -31 0 -3548 0 -3548 26 -31 26 -31 5438 0 5438 0 26
31 26 31 0 3548 0 3548 -26 31 -26 31 -5438 0 -5438 0 -26 -31z m7813 -2715
l31 -6 0 -128 0 -127 -74 -1 c-147 -1 -226 -68 -226 -189 l0 -33 110 0 110 0
0 -125 0 -125 -110 0 -110 0 0 -310 0 -310 -135 0 -135 0 0 477 c0 525 3 556
62 660 55 98 168 177 288 202 95 19 146 23 189 15z m-733 -80 c97 -46 97 -221
1 -271 -39 -20 -115 -20 -154 1 -89 46 -108 180 -35 248 15 14 34 28 42 31 32
11 113 6 146 -9z m-966 -236 l0 -221 23 19 c67 60 151 82 256 66 170 -25 275
-116 337 -289 23 -65 24 -79 24 -340 l0 -273 -135 0 -135 0 0 263 c0 253 -1
264 -22 307 -58 114 -243 118 -316 7 l-27 -40 -3 -269 -3 -268 -135 0 -134 0
0 630 0 630 135 0 135 0 0 -222z m-670 -43 l0 -125 130 0 130 0 0 -125 0 -125
-131 0 -132 0 6 -112 c7 -156 26 -196 112 -241 31 -15 58 -20 118 -19 l77 0 0
-123 0 -123 -35 -6 c-37 -7 -111 -1 -190 16 -114 24 -230 107 -285 202 -61
108 -62 118 -67 514 -3 199 -2 369 1 377 4 12 30 15 136 15 l130 0 0 -125z
m-2525 -111 c44 -8 81 -14 83 -14 1 0 2 -56 2 -125 0 -69 -1 -125 -2 -125 -2
0 -38 7 -80 15 -100 19 -281 30 -342 21 -46 -7 -68 -28 -50 -46 5 -5 74 -23
154 -40 194 -40 211 -45 267 -83 150 -100 131 -340 -35 -430 -93 -50 -154 -62
-312 -60 -80 1 -188 9 -240 17 -52 9 -98 16 -102 16 -5 0 -8 56 -8 125 0 69 3
125 8 125 4 0 39 -7 77 -15 85 -18 355 -30 410 -18 24 5 41 15 43 25 4 21 -52
41 -206 73 -67 14 -142 34 -166 44 -105 46 -163 139 -153 248 13 138 97 221
262 259 71 16 264 10 390 -12z m1785 16 c144 -23 261 -108 321 -235 43 -90 49
-144 49 -416 l0 -249 -135 0 -135 0 0 248 c0 139 -5 263 -10 284 -43 152 -272
171 -342 29 -22 -43 -23 -61 -26 -304 l-4 -258 -131 3 -132 3 0 255 c1 179 5
271 14 310 39 159 156 282 301 318 92 23 140 26 230 12z m-1320 -252 c0 -139
5 -269 10 -288 14 -50 65 -97 120 -109 74 -16 162 11 200 63 35 47 38 80 39
334 l1 252 135 0 135 0 0 -457 c0 -385 -3 -467 -16 -520 -41 -164 -165 -283
-331 -318 -105 -23 -258 -16 -375 16 l-38 10 0 134 c0 74 3 135 8 135 4 0 36
-10 72 -22 47 -15 92 -21 165 -22 88 -1 106 2 150 24 30 15 57 38 68 57 18 31
36 143 23 143 -3 0 -26 -15 -50 -34 -92 -70 -266 -66 -386 9 -50 32 -115 105
-146 167 -49 96 -54 133 -54 416 l0 262 135 0 135 0 0 -252z m3750 -198 l0
-450 -135 0 -135 0 0 450 0 450 135 0 135 0 0 -450z m982 193 c4 -219 7 -264
22 -301 33 -77 109 -110 206 -91 66 14 122 63 139 124 6 24 11 136 11 283 l0
242 135 0 135 0 0 -447 c0 -546 -4 -570 -98 -695 -99 -131 -278 -187 -508
-159 -50 6 -105 16 -123 22 l-31 11 0 134 c0 74 3 134 8 134 4 0 36 -10 72
-22 47 -15 92 -21 165 -22 167 -2 228 43 241 175 l7 64 -29 -27 c-95 -88 -275
-96 -408 -17 -45 27 -114 97 -140 143 -14 22 -35 70 -47 106 -20 59 -23 88
-27 333 l-4 267 135 0 135 0 4 -257z"/>
</g>
</svg>
